<svg xmlns="http://www.w3.org/2000/svg" viewBox="0 -9 512 512"><defs/><path fill="#B4D8FA" d="M7.5 364.83a7.5 7.5 0 007.5-7.5V138.9h443.13v82.44a7.5 7.5 0 1015 0V73.11a45.65 45.65 0 00-45.6-45.6h-19.67v-9.3A18.24 18.24 0 00389.64 0h-13.93a18.24 18.24 0 00-18.21 18.22v9.29h-49.75v-9.3A18.24 18.24 0 00289.54 0H275.6a18.24 18.24 0 00-18.21 18.22v9.29h-49.75v-9.3A18.24 18.24 0 00189.42 0H175.5a18.24 18.24 0 00-18.22 18.22v9.29h-49.74v-9.3A18.24 18.24 0 0089.31 0H75.38a18.24 18.24 0 00-18.22 18.22v9.29H45.6A45.65 45.65 0 000 73.1v284.22a7.5 7.5 0 007.5 7.5zm365-346.61A3.22 3.22 0 01375.7 15h13.94a3.22 3.22 0 013.21 3.22v36.44a3.22 3.22 0 01-3.21 3.22H375.7a3.22 3.22 0 01-3.21-3.22zm-100.11 0A3.22 3.22 0 01275.6 15h13.94a3.22 3.22 0 013.21 3.22v36.44a3.22 3.22 0 01-3.21 3.22H275.6a3.22 3.22 0 01-3.21-3.22zm-100.12 0A3.22 3.22 0 01175.5 15h13.94a3.22 3.22 0 013.21 3.22v36.44a3.22 3.22 0 01-3.21 3.22h-13.94a3.22 3.22 0 01-3.22-3.22zm-100.1 0A3.22 3.22 0 0175.37 15h13.94a3.22 3.22 0 013.21 3.22v36.44a3.22 3.22 0 01-3.21 3.22H75.38a3.22 3.22 0 01-3.22-3.22zM45.6 42.5h11.56v12.15a18.24 18.24 0 0018.22 18.22h13.94a18.24 18.24 0 0018.21-18.22V42.5h49.75v12.15a18.24 18.24 0 0018.21 18.22h13.94a18.24 18.24 0 0018.21-18.22V42.5h49.75v12.15a18.24 18.24 0 0018.22 18.22h13.93a18.24 18.24 0 0018.21-18.22V42.5h49.75v12.15a18.24 18.24 0 0018.21 18.22h13.94a18.24 18.24 0 0018.21-18.22V42.5h19.67a30.63 30.63 0 0130.6 30.6v50.78H15V73.11a30.63 30.63 0 0130.6-30.6zm0 0M84.91 434.58h-65.4a4.52 4.52 0 01-4.51-4.51v-38.56a7.5 7.5 0 10-15 0v38.56a19.54 19.54 0 0019.51 19.51h65.4a7.5 7.5 0 000-15zm0 0"/><path fill="#B4D8FA" d="M84.66 160.76H58.59a7.5 7.5 0 000 15h26.07a7.5 7.5 0 100-15zm0 0M138.7 175.76h26.08a7.5 7.5 0 100-15H138.7a7.5 7.5 0 000 15zm0 0M218.82 175.76h26.07a7.5 7.5 0 100-15h-26.07a7.5 7.5 0 100 15zm0 0M298.94 175.76H325a7.5 7.5 0 100-15h-26.07a7.5 7.5 0 000 15zm0 0M405.12 160.76h-26.07a7.5 7.5 0 100 15h26.07a7.5 7.5 0 100-15zm0 0M84.66 198.48H58.59a7.5 7.5 0 100 15h26.07a7.5 7.5 0 100-15zm0 0M138.7 213.48h26.08a7.5 7.5 0 100-15H138.7a7.5 7.5 0 100 15zm0 0M218.82 213.48h26.07a7.5 7.5 0 100-15h-26.07a7.5 7.5 0 100 15zm0 0M298.94 213.48H325a7.5 7.5 0 100-15h-26.07a7.5 7.5 0 100 15zm0 0M405.12 198.48h-26.07a7.5 7.5 0 100 15h26.07a7.5 7.5 0 100-15zm0 0M138.9 360.71l38.55 38.57c5.58 5.58 13 8.65 20.89 8.65 7.89 0 15.3-3.07 20.88-8.65l105.6-105.6c11.52-11.52 11.52-30.26 0-41.78s-30.25-11.51-41.77 0l-84.71 84.72-17.68-17.67a29.57 29.57 0 00-41.77 0 29.57 29.57 0 000 41.76zm10.6-31.16a14.5 14.5 0 0110.27-4.25 14.5 14.5 0 0110.28 4.25l22.98 22.98a7.5 7.5 0 0010.6 0l90.03-90.02a14.55 14.55 0 0120.55 0 14.55 14.55 0 010 20.56l-105.6 105.6a14.44 14.44 0 01-10.27 4.26c-3.89 0-7.54-1.52-10.28-4.26L149.5 350.1a14.55 14.55 0 010-20.56zm0 0"/><path fill="#B4D8FA" d="M473.13 315.36V255.5a7.5 7.5 0 10-15 0v50.28a98.87 98.87 0 00-45.63-11.1c-54.87 0-99.5 44.64-99.5 99.5a98.97 98.97 0 008.56 40.4H119.1a7.5 7.5 0 100 15h210.78a99.48 99.48 0 0082.63 44.1c54.86 0 99.5-44.63 99.5-99.5a99.39 99.39 0 00-38.87-78.83zM412.5 478.7c-46.6 0-84.5-37.9-84.5-84.5s37.9-84.5 84.5-84.5 84.5 37.9 84.5 84.5-37.91 84.5-84.5 84.5zm0 0"/><path fill="#B4D8FA" d="M412.5 320.53c-40.62 0-73.67 33.05-73.67 73.67 0 40.62 33.05 73.66 73.67 73.66s73.66-33.04 73.66-73.66-33.05-73.67-73.66-73.67zm6.71 131.93c.5-1 .79-2.12.79-3.32V440a7.5 7.5 0 00-15 0v9.14c0 1.2.28 2.32.78 3.32a58.76 58.76 0 01-51.55-51.55c1 .5 2.13.79 3.32.79h9.13a7.5 7.5 0 100-15h-9.13c-1.2 0-2.32.28-3.32.78a58.76 58.76 0 0151.55-51.55c-.5 1-.78 2.12-.78 3.32v9.14a7.5 7.5 0 1015 0v-9.14c0-1.2-.3-2.32-.79-3.32a58.76 58.76 0 0151.56 51.55c-1-.5-2.13-.78-3.33-.78h-9.14a7.5 7.5 0 100 15h9.14c1.2 0 2.32-.29 3.33-.79a58.76 58.76 0 01-51.56 51.55zm0 0"/><path fill="#B4D8FA" d="M429.03 386.7H420V379a7.5 7.5 0 00-15 0v15.2a7.5 7.5 0 007.5 7.5h16.53a7.5 7.5 0 100-15zm0 0"/></svg>