<svg xmlns="http://www.w3.org/2000/svg" width="1038" height="439" fill="none"><g clip-path="url(#a)"><g filter="url(#b)"><rect width="327.88" height="218.24" x="568.99" y="53.59" fill="#3E87CD" fill-opacity=".4" rx="12.53" shape-rendering="crispEdges"/></g><rect width="53.25" height="12.53" x="581.52" y="93.27" fill="#EBEEF2" fill-opacity=".4" rx="6.27"/><rect width="74.14" height="12.53" x="641.04" y="93.27" fill="#EBEEF2" fill-opacity=".4" rx="6.27"/><rect width="32.37" height="12.53" x="602.4" y="112.07" fill="#EBEEF2" fill-opacity=".4" rx="6.27"/><rect width="74.14" height="12.53" x="641.04" y="112.07" fill="#EBEEF2" fill-opacity=".4" rx="6.27"/><rect width="53.25" height="12.53" x="621.2" y="130.86" fill="#EBEEF2" fill-opacity=".4" rx="6.27"/><rect width="74.14" height="12.53" x="680.72" y="130.86" fill="#EBEEF2" fill-opacity=".4" rx="6.27"/><rect width="35.5" height="12.53" x="621.2" y="149.66" fill="#EBEEF2" fill-opacity=".4" rx="6.27"/><rect width="35.5" height="12.53" x="662.97" y="149.66" fill="#EBEEF2" fill-opacity=".4" rx="6.27"/><rect width="53.25" height="12.53" x="754.86" y="180.99" fill="#EBEEF2" fill-opacity=".4" rx="6.27" transform="rotate(-180 754.86 180.99)"/><rect width="74.14" height="12.53" x="695.34" y="180.99" fill="#EBEEF2" fill-opacity=".4" rx="6.27" transform="rotate(-180 695.34 180.99)"/><rect width="53.25" height="12.53" x="602.4" y="187.25" fill="#EBEEF2" fill-opacity=".4" rx="6.27"/><rect width="35.5" height="12.53" x="602.4" y="206.05" fill="#EBEEF2" fill-opacity=".4" rx="6.27"/><rect width="74.14" height="12.53" x="644.17" y="206.05" fill="#EBEEF2" fill-opacity=".4" rx="6.27"/><rect width="53.25" height="12.53" x="724.58" y="206.05" fill="#EBEEF2" fill-opacity=".4" rx="6.27"/><rect width="53.25" height="12.53" x="736.06" y="237.37" fill="#EBEEF2" fill-opacity=".4" rx="6.27" transform="rotate(-180 736.06 237.37)"/><rect width="74.14" height="12.53" x="676.54" y="237.37" fill="#EBEEF2" fill-opacity=".4" rx="6.27" transform="rotate(-180 676.54 237.37)"/><rect width="39.68" height="12.53" x="581.52" y="243.64" fill="#EBEEF2" fill-opacity=".4" rx="6.27"/><circle cx="588.01" cy="69.67" r="5.74" fill="#EBEEF2" fill-opacity=".4"/><circle cx="606.02" cy="69.85" r="5.74" fill="#EBEEF2" fill-opacity=".4"/><circle cx="624.02" cy="70.03" r="5.74" fill="#EBEEF2" fill-opacity=".4"/><g filter="url(#c)"><rect width="327.88" height="218.24" x="139.62" y="287.19" fill="#3E87CD" fill-opacity=".4" rx="12.53" shape-rendering="crispEdges"/></g><rect width="53.25" height="12.53" x="152.15" y="326.88" fill="#EBEEF2" fill-opacity=".4" rx="6.27"/><rect width="74.14" height="12.53" x="211.67" y="326.88" fill="#EBEEF2" fill-opacity=".4" rx="6.27"/><rect width="32.37" height="12.53" x="173.03" y="345.67" fill="#EBEEF2" fill-opacity=".4" rx="6.27"/><rect width="74.14" height="12.53" x="211.67" y="345.67" fill="#EBEEF2" fill-opacity=".4" rx="6.27"/><rect width="53.25" height="12.53" x="191.83" y="364.47" fill="#EBEEF2" fill-opacity=".4" rx="6.27"/><rect width="74.14" height="12.53" x="251.35" y="364.47" fill="#EBEEF2" fill-opacity=".4" rx="6.27"/><rect width="35.5" height="12.53" x="191.83" y="383.26" fill="#EBEEF2" fill-opacity=".4" rx="6.27"/><rect width="35.5" height="12.53" x="233.6" y="383.26" fill="#EBEEF2" fill-opacity=".4" rx="6.27"/><rect width="53.25" height="12.53" x="325.49" y="414.59" fill="#EBEEF2" fill-opacity=".4" rx="6.27" transform="rotate(180 325.49 414.59)"/><rect width="74.14" height="12.53" x="265.97" y="414.59" fill="#EBEEF2" fill-opacity=".4" rx="6.27" transform="rotate(180 265.97 414.59)"/><rect width="53.25" height="12.53" x="173.03" y="420.85" fill="#EBEEF2" fill-opacity=".4" rx="6.27"/><circle cx="158.64" cy="303.27" r="5.74" fill="#EBEEF2" fill-opacity=".4"/><circle cx="176.64" cy="303.45" r="5.74" fill="#EBEEF2" fill-opacity=".4"/><circle cx="194.65" cy="303.63" r="5.74" fill="#EBEEF2" fill-opacity=".4"/><g filter="url(#d)"><rect width="327.88" height="218.24" x="825.17" y="391.92" fill="#3E87CD" fill-opacity=".4" rx="12.53" shape-rendering="crispEdges"/></g><rect width="53.25" height="12.53" x="837.7" y="431.6" fill="#EBEEF2" fill-opacity=".4" rx="6.27"/><rect width="74.14" height="12.53" x="897.22" y="431.6" fill="#EBEEF2" fill-opacity=".4" rx="6.27"/><circle cx="844.19" cy="407.99" r="5.74" fill="#EBEEF2" fill-opacity=".4"/><circle cx="862.2" cy="408.17" r="5.74" fill="#EBEEF2" fill-opacity=".4"/><circle cx="880.2" cy="408.35" r="5.74" fill="#EBEEF2" fill-opacity=".4"/><g filter="url(#e)"><rect width="327.88" height="218.24" x="481.5" y="286.45" fill="#3E87CD" fill-opacity=".4" rx="12.53" shape-rendering="crispEdges"/></g><rect width="53.25" height="12.53" x="494.03" y="326.13" fill="#EBEEF2" fill-opacity=".4" rx="6.27"/><rect width="241.21" height="12.53" x="553.55" y="326.13" fill="#EBEEF2" fill-opacity=".4" rx="6.27"/><rect width="53.25" height="54.3" x="494.03" y="356.41" fill="#EBEEF2" fill-opacity=".4" rx="6.27"/><rect width="241.21" height="12.53" x="553.55" y="358.5" fill="#EBEEF2" fill-opacity=".4" rx="6.27"/><rect width="241.21" height="12.53" x="553.55" y="377.3" fill="#EBEEF2" fill-opacity=".4" rx="6.27"/><rect width="95.02" height="12.53" x="553.55" y="396.09" fill="#EBEEF2" fill-opacity=".4" rx="6.27"/><circle cx="500.52" cy="302.53" r="5.74" fill="#EBEEF2" fill-opacity=".4"/><circle cx="518.52" cy="302.71" r="5.74" fill="#EBEEF2" fill-opacity=".4"/><circle cx="536.53" cy="302.89" r="5.74" fill="#EBEEF2" fill-opacity=".4"/><rect width="241.21" height="12.53" x="553.55" y="419.07" fill="#EBEEF2" fill-opacity=".4" rx="6.27"/><rect width="241.21" height="12.53" x="553.55" y="437.86" fill="#EBEEF2" fill-opacity=".4" rx="6.27"/><g filter="url(#f)"><rect width="186.91" height="146.19" x="369.55" y="124.6" fill="#FF686F" fill-opacity=".75" rx="12.53" shape-rendering="crispEdges"/></g><circle cx="388.57" cy="140.68" r="5.74" fill="#EBEEF2" fill-opacity=".4"/><circle cx="406.57" cy="140.85" r="5.74" fill="#EBEEF2" fill-opacity=".4"/><circle cx="424.58" cy="141.03" r="5.74" fill="#EBEEF2" fill-opacity=".4"/><path fill="#EBEEF2" fill-opacity=".4" fill-rule="evenodd" d="M461.88 178.83c21.09-29.47 72.22 13.76 1.44 63.82-73.07-51.51-23.4-93.23-1.44-63.82Z" clip-rule="evenodd"/><g filter="url(#g)"><rect width="328.33" height="89.8" x="824.37" y="286.45" fill="#3E87CD" fill-opacity=".4" rx="12.53" shape-rendering="crispEdges"/></g><rect width="68.45" height="66.83" x="837.21" y="297.94" fill="#EBEEF2" fill-opacity=".4" rx="7.31"/><rect width="53.25" height="12.53" x="918.49" y="305.25" fill="#EBEEF2" fill-opacity=".4" rx="6.27"/><rect width="74.14" height="12.53" x="978.01" y="305.25" fill="#EBEEF2" fill-opacity=".4" rx="6.27"/><rect width="222.45" height="12.53" x="918.49" y="325.09" fill="#EBEEF2" fill-opacity=".4" rx="6.27"/><rect width="222.45" height="12.53" x="918.49" y="344.93" fill="#EBEEF2" fill-opacity=".4" rx="6.27"/><g filter="url(#h)"><rect width="328.33" height="89.8" x="26" y="182.03" fill="#3E87CD" fill-opacity=".4" rx="12.53" shape-rendering="crispEdges"/></g><rect width="68.45" height="66.83" x="38.83" y="193.52" fill="#EBEEF2" fill-opacity=".4" rx="7.31"/><rect width="53.25" height="12.53" x="120.11" y="200.83" fill="#EBEEF2" fill-opacity=".4" rx="6.27"/><rect width="74.14" height="12.53" x="179.63" y="200.83" fill="#EBEEF2" fill-opacity=".4" rx="6.27"/><rect width="222.45" height="12.53" x="120.11" y="220.67" fill="#EBEEF2" fill-opacity=".4" rx="6.27"/><rect width="222.45" height="12.53" x="120.11" y="240.51" fill="#EBEEF2" fill-opacity=".4" rx="6.27"/><g filter="url(#i)"><rect width="328.33" height="89.8" x="909.4" y="182.03" fill="#3E87CD" fill-opacity=".4" rx="12.53" shape-rendering="crispEdges"/></g><rect width="68.45" height="66.83" x="922.24" y="193.52" fill="#EBEEF2" fill-opacity=".4" rx="7.31"/><rect width="53.25" height="12.53" x="1003.52" y="200.83" fill="#EBEEF2" fill-opacity=".4" rx="6.27"/><rect width="222.45" height="12.53" x="1003.52" y="220.67" fill="#EBEEF2" fill-opacity=".4" rx="6.27"/><rect width="222.45" height="12.53" x="1003.52" y="240.51" fill="#EBEEF2" fill-opacity=".4" rx="6.27"/></g><defs><filter id="b" width="344.59" height="234.95" x="560.64" y="45.24" color-interpolation-filters="sRGB" filterUnits="userSpaceOnUse"><feFlood flood-opacity="0" result="BackgroundImageFix"/><feColorMatrix in="SourceAlpha" result="hardAlpha" values="0 0 0 0 0 0 0 0 0 0 0 0 0 0 0 0 0 0 127 0"/><feOffset/><feGaussianBlur stdDeviation="4.18"/><feComposite in2="hardAlpha" operator="out"/><feColorMatrix values="0 0 0 0 0 0 0 0 0 0 0 0 0 0 0 0 0 0 0.12 0"/><feBlend in2="BackgroundImageFix" result="effect1_dropShadow"/><feBlend in="SourceGraphic" in2="effect1_dropShadow" result="shape"/></filter><filter id="c" width="344.59" height="234.95" x="131.26" y="278.84" color-interpolation-filters="sRGB" filterUnits="userSpaceOnUse"><feFlood flood-opacity="0" result="BackgroundImageFix"/><feColorMatrix in="SourceAlpha" result="hardAlpha" values="0 0 0 0 0 0 0 0 0 0 0 0 0 0 0 0 0 0 127 0"/><feOffset/><feGaussianBlur stdDeviation="4.18"/><feComposite in2="hardAlpha" operator="out"/><feColorMatrix values="0 0 0 0 0 0 0 0 0 0 0 0 0 0 0 0 0 0 0.12 0"/><feBlend in2="BackgroundImageFix" result="effect1_dropShadow"/><feBlend in="SourceGraphic" in2="effect1_dropShadow" result="shape"/></filter><filter id="d" width="344.59" height="234.95" x="816.82" y="383.56" color-interpolation-filters="sRGB" filterUnits="userSpaceOnUse"><feFlood flood-opacity="0" result="BackgroundImageFix"/><feColorMatrix in="SourceAlpha" result="hardAlpha" values="0 0 0 0 0 0 0 0 0 0 0 0 0 0 0 0 0 0 127 0"/><feOffset/><feGaussianBlur stdDeviation="4.18"/><feComposite in2="hardAlpha" operator="out"/><feColorMatrix values="0 0 0 0 0 0 0 0 0 0 0 0 0 0 0 0 0 0 0.12 0"/><feBlend in2="BackgroundImageFix" result="effect1_dropShadow"/><feBlend in="SourceGraphic" in2="effect1_dropShadow" result="shape"/></filter><filter id="e" width="344.59" height="234.95" x="473.14" y="278.1" color-interpolation-filters="sRGB" filterUnits="userSpaceOnUse"><feFlood flood-opacity="0" result="BackgroundImageFix"/><feColorMatrix in="SourceAlpha" result="hardAlpha" values="0 0 0 0 0 0 0 0 0 0 0 0 0 0 0 0 0 0 127 0"/><feOffset/><feGaussianBlur stdDeviation="4.18"/><feComposite in2="hardAlpha" operator="out"/><feColorMatrix values="0 0 0 0 0 0 0 0 0 0 0 0 0 0 0 0 0 0 0.12 0"/><feBlend in2="BackgroundImageFix" result="effect1_dropShadow"/><feBlend in="SourceGraphic" in2="effect1_dropShadow" result="shape"/></filter><filter id="f" width="203.62" height="162.9" x="361.19" y="116.25" color-interpolation-filters="sRGB" filterUnits="userSpaceOnUse"><feFlood flood-opacity="0" result="BackgroundImageFix"/><feColorMatrix in="SourceAlpha" result="hardAlpha" values="0 0 0 0 0 0 0 0 0 0 0 0 0 0 0 0 0 0 127 0"/><feOffset/><feGaussianBlur stdDeviation="4.18"/><feComposite in2="hardAlpha" operator="out"/><feColorMatrix values="0 0 0 0 0 0 0 0 0 0 0 0 0 0 0 0 0 0 0.12 0"/><feBlend in2="BackgroundImageFix" result="effect1_dropShadow"/><feBlend in="SourceGraphic" in2="effect1_dropShadow" result="shape"/></filter><filter id="g" width="345.04" height="106.51" x="816.02" y="278.1" color-interpolation-filters="sRGB" filterUnits="userSpaceOnUse"><feFlood flood-opacity="0" result="BackgroundImageFix"/><feColorMatrix in="SourceAlpha" result="hardAlpha" values="0 0 0 0 0 0 0 0 0 0 0 0 0 0 0 0 0 0 127 0"/><feOffset/><feGaussianBlur stdDeviation="4.18"/><feComposite in2="hardAlpha" operator="out"/><feColorMatrix values="0 0 0 0 0 0 0 0 0 0 0 0 0 0 0 0 0 0 0.12 0"/><feBlend in2="BackgroundImageFix" result="effect1_dropShadow"/><feBlend in="SourceGraphic" in2="effect1_dropShadow" result="shape"/></filter><filter id="h" width="345.04" height="106.51" x="17.65" y="173.68" color-interpolation-filters="sRGB" filterUnits="userSpaceOnUse"><feFlood flood-opacity="0" result="BackgroundImageFix"/><feColorMatrix in="SourceAlpha" result="hardAlpha" values="0 0 0 0 0 0 0 0 0 0 0 0 0 0 0 0 0 0 127 0"/><feOffset/><feGaussianBlur stdDeviation="4.18"/><feComposite in2="hardAlpha" operator="out"/><feColorMatrix values="0 0 0 0 0 0 0 0 0 0 0 0 0 0 0 0 0 0 0.12 0"/><feBlend in2="BackgroundImageFix" result="effect1_dropShadow"/><feBlend in="SourceGraphic" in2="effect1_dropShadow" result="shape"/></filter><filter id="i" width="345.04" height="106.51" x="901.05" y="173.68" color-interpolation-filters="sRGB" filterUnits="userSpaceOnUse"><feFlood flood-opacity="0" result="BackgroundImageFix"/><feColorMatrix in="SourceAlpha" result="hardAlpha" values="0 0 0 0 0 0 0 0 0 0 0 0 0 0 0 0 0 0 127 0"/><feOffset/><feGaussianBlur stdDeviation="4.18"/><feComposite in2="hardAlpha" operator="out"/><feColorMatrix values="0 0 0 0 0 0 0 0 0 0 0 0 0 0 0 0 0 0 0.12 0"/><feBlend in2="BackgroundImageFix" result="effect1_dropShadow"/><feBlend in="SourceGraphic" in2="effect1_dropShadow" result="shape"/></filter><clipPath id="a"><path fill="#fff" d="M0 0h1038v439H0z"/></clipPath></defs></svg>