<svg xmlns="http://www.w3.org/2000/svg" fill="none" class="gridItem__media" viewBox="0 0 1600 1200"><path fill="#F4F4F4" d="M1322.9 1027l68.1-285.2c3.8-16.1 3.8-32.9-.1-49L1289 277.5a55.1 55.1 0 00-45.9-41.4L581 144.5a55 55 0 00-44.7 14L231.6 438.4a55.2 55.2 0 00-17.8 41.3l7.6 547.4h1101.5v-.1z"/><path fill="#F4F4F4" d="M1323.2 1026.9l68.1-285.2c3.8-16.1 3.8-32.9-.1-49l-101.8-415.4a55.1 55.1 0 00-45.9-41.4l-662.1-91.6a55 55 0 00-44.7 14l-304.8 280a55.2 55.2 0 00-17.8 41.3l7.6 547.4h1101.5v-.1z"/><path fill="#B2B6BB" d="M1216.7 794.1h-51.9c1.4 0 2.6 1.2 2.6 2.6h42.6v2.6h6.7c1.4 0 2.6-1.2 2.6-2.6 0-1.4-1.1-2.6-2.6-2.6z"/><path fill="#B2B6BB" d="M1164.8 799.3h-5.6l8.2 5.4h-8.2v174.5h50.8V799.3h-45.2z"/><path fill="#B2B6BB" d="M1167.4 796.8c0 1.4-1.2 2.6-2.6 2.6h45.2v-2.6h-42.6z"/><path fill="#DADDDF" d="M839.7 916.2v49.6h172.5v-49.6H839.7zm143.5 17.2l-1.1 1.1c-.6.4-1.4.7-2.2.7l-.7-.1-.3-.1-.3-.1a4 4 0 010-7.6l.3-.1.3-.1.7-.1.8.1.7.2c.6.3 1.2.7 1.6 1.2.3.3.5.7.7 1.2.2.4.2.9.2 1.4 0 .8-.3 1.6-.7 2.3z"/><path fill="#DADDDF" d="M838.6 966.9V815.3h173.7v-11.9l-181.2-1.6v177.4h181.2v-12.3H838.6z"/><path fill="#DADDDF" d="M1012.3 816.5H839.7v48.4h172.5v-48.4h.1zm-28.7 16.7l-.7 1.2c-.4.5-1 .9-1.6 1.2l-.7.2-.8.1-.7-.1-.3-.1-.3-.1a4 4 0 010-7.6l.3-.1.3-.1.7-.1.8.1c.7.2 1.4.5 1.9 1l.1.1a4 4 0 011.2 2.8c.1.6 0 1.1-.2 1.5zM1012.3 866H839.7v49h172.5v-49h.1zm-28.7 16.4l-.7 1.2c-.4.5-1 .9-1.6 1.2l-.7.2-.8.1-.7-.1-.3-.1-.3-.1a4 4 0 010-7.6l.3-.1.3-.1.7-.1.8.1.7.2c.6.3 1.2.7 1.6 1.2.3.3.5.7.7 1.2.2.4.2.9.2 1.4 0 .5 0 1-.2 1.4z"/><path fill="#DADDDF" d="M1012.3 803.4v11.9h138.8V966.9h-138.8v12.3H1159.2V804.7l-146.9-1.3z"/><path fill="#DADDDF" d="M1149.9 916.2h-137.6v49.6h137.6v-49.6zM1149.9 866h-137.6v49h137.6v-49zM1149.9 816.5h-137.6v48.4h137.6v-48.4z"/><path fill="#B2B6BB" d="M838.6 864.9h1.1v-48.4h172.6v-1.2H838.6v49.6zM839.7 965.7v-49.5h-1.1v50.7h173.7v-1.2H839.7zM839.8 866h-1.2v49h1.2v-49zM1149.9 816.5v48.4h1.2v-49.6h-138.8v1.2h137.6zM1151.1 866h-1.2v49h1.2v-49zM1149.9 965.7h-137.6v1.2h138.8v-50.7h-1.2v49.5z"/><path fill="#DADDDF" d="M1012.3 796.8h152.5v-2.6h.1-339.8a2.6 2.6 0 00-2.6 2.6c0 1.4 1.2 2.6 2.6 2.6h5.9v-2.6h181.3z"/><path fill="#DADDDF" d="M1164.8 796.8h2.6c0-1.4-1.2-2.6-2.6-2.6h-.1v2.6h.1zM1164.8 796.8h-5.6v2.6h5.6v-2.6z"/><path fill="#DADDDF" d="M1164.8 799.3c1.5 0 2.6-1.2 2.6-2.6h-2.6v2.6zM1012.3 796.8H831.1v2.6h181.2v-2.6zM1159.2 796.8h-146.9v2.6h146.9v-2.6z"/><path fill="#B2B6BB" d="M1012.2 915H839.7v1.2h172.5V915zM1149.9 915h-137.6v1.2h137.6V915z"/><path fill="#B2B6BB" d="M839.8 915h-1.2v1.2h1.2V915zM1151.1 915h-1.2v1.2h1.2V915zM1012.2 864.9H839.7v1.2h172.5v-1.2zM1149.9 864.9h-137.6v1.2h137.6v-1.2z"/><path fill="#B2B6BB" d="M839.8 864.9h-1.2v1.2h1.2v-1.2zM1151.1 864.9h-1.2v1.2h1.2v-1.2zM983.9 831.9c0-1.1-.4-2.1-1.2-2.8.7.6 1.2 1.7 1.2 2.8zM981.3 831.9a4 4 0 00-2.7-3.8 4 4 0 000 7.6 4 4 0 002.7-3.8z"/><path fill="#DADDDF" d="M978.6 828.1l.3-.1-.3.1z"/><path fill="#000" d="M978.6 828.1l.3-.1-.3.1z" opacity=".1"/><path fill="#DADDDF" d="M978.6 835.7l.3.1-.3-.1z"/><path fill="#000" d="M978.6 835.7l.3.1-.3-.1z" opacity=".1"/><path fill="#B2B6BB" d="M982.6 828.9c-.5-.5-1.2-.9-1.9-1l-.8-.1-.7.1-.3.1-.2.1a4 4 0 012.7 3.8 4 4 0 01-2.7 3.8l.2.1.3.1.7.1.8-.1.7-.2c.6-.3 1.2-.7 1.6-1.2.3-.3.5-.7.7-1.2.2-.4.2-.9.2-1.4 0-1.1-.4-2.1-1.2-2.8l-.1-.2z"/><path fill="#000" d="M982.6 828.9c-.5-.5-1.2-.9-1.9-1l-.8-.1-.7.1-.3.1-.2.1a4 4 0 012.7 3.8 4 4 0 01-2.7 3.8l.2.1.3.1.7.1.8-.1.7-.2c.6-.3 1.2-.7 1.6-1.2.3-.3.5-.7.7-1.2.2-.4.2-.9.2-1.4 0-1.1-.4-2.1-1.2-2.8l-.1-.2z" opacity=".1"/><path fill="#B2B6BB" d="M981.3 881.1a4 4 0 00-2.7-3.8 4 4 0 000 7.6 4 4 0 002.7-3.8z"/><path fill="#DADDDF" d="M978.6 877.2c0 .1 0 .1 0 0l.3-.1-.3.1z"/><path fill="#000" d="M978.6 877.2c0 .1 0 .1 0 0l.3-.1-.3.1z" opacity=".1"/><path fill="#DADDDF" d="M978.6 884.9l.3.1-.3-.1s0-.1 0 0z"/><path fill="#000" d="M978.6 884.9l.3.1-.3-.1s0-.1 0 0z" opacity=".1"/><path fill="#B2B6BB" d="M982.9 878.5c-.4-.5-1-.9-1.6-1.2l-.7-.2-.8-.1-.7.1-.3.1-.2.1a4 4 0 012.7 3.8 4 4 0 01-2.7 3.8l.2.1.3.1.7.1.8-.1.7-.2c.6-.3 1.2-.7 1.6-1.2.3-.3.5-.7.7-1.2.2-.4.2-.9.2-1.4l-.2-1.4c-.1-.5-.4-.9-.7-1.2z"/><path fill="#000" d="M982.9 878.5c-.4-.5-1-.9-1.6-1.2l-.7-.2-.8-.1-.7.1-.3.1-.2.1a4 4 0 012.7 3.8 4 4 0 01-2.7 3.8l.2.1.3.1.7.1.8-.1.7-.2c.6-.3 1.2-.7 1.6-1.2.3-.3.5-.7.7-1.2.2-.4.2-.9.2-1.4l-.2-1.4c-.1-.5-.4-.9-.7-1.2z" opacity=".1"/><path fill="#B2B6BB" d="M981.3 931.1a4 4 0 00-2.7-3.8 4 4 0 000 7.6 4 4 0 002.7-3.8zM982.1 934.4l1.1-1.1c-.3.5-.7.9-1.1 1.1z"/><path fill="#DADDDF" d="M978.6 927.3l.3-.1-.3.1z"/><path fill="#000" d="M978.6 927.3l.3-.1-.3.1z" opacity=".1"/><path fill="#DADDDF" d="M978.6 934.9l.3.1-.3-.1z"/><path fill="#000" d="M978.6 934.9l.3.1-.3-.1z" opacity=".1"/><path fill="#B2B6BB" d="M982.9 928.6c-.4-.5-1-.9-1.6-1.2l-.7-.2-.8-.1-.7.1-.3.1-.2.1a4 4 0 012.7 3.8 4 4 0 01-2.7 3.8l.2.1.3.1.7.1c.8 0 1.6-.3 2.2-.7l1.1-1.1a4.1 4.1 0 00.5-3.6c-.1-.6-.4-1-.7-1.3z"/><path fill="#000" d="M982.9 928.6c-.4-.5-1-.9-1.6-1.2l-.7-.2-.8-.1-.7.1-.3.1-.2.1a4 4 0 012.7 3.8 4 4 0 01-2.7 3.8l.2.1.3.1.7.1c.8 0 1.6-.3 2.2-.7l1.1-1.1a4.1 4.1 0 00.5-3.6c-.1-.6-.4-1-.7-1.3z" opacity=".1"/><path fill="#B2B6BB" d="M1167.4 804.7l-8.2-5.4v5.4h8.2zM1012.3 799.3H831.1v2.5l181.2 1.6v-4.1zM1012.3 803.4l146.9 1.3v-5.4h-146.9v4.1z"/><path fill="#DADDDF" d="M1193.3 1004l5.4 21.3a2.7 2.7 0 002.5 1.8 3 3 0 001-.2l-4-21.6-4.9-1.3z"/><path fill="#B2B6BB" d="M1187 979.2l6.3 24.8-6.3-24.8zM1193.3 1004l4.9 1.2 4 21.6.2-.1.2-.1.2-.1.2-.2.1-.1.3-.4.1-.1.1-.3v-.2l.1-.4v-.2l-.1-.5-3.7-41-.3-3.7H1187l6.3 24.6z"/><path fill="#DADDDF" d="M1142.6 982.8l-1.2-3.6 11.7 46a2.7 2.7 0 002.5 1.8 3 3 0 001-.2l-6.8-42.7-7.2-1.3z"/><path fill="#B2B6BB" d="M1158.2 1024.4v-.5l-3.7-41 3.7 41v.5zM1141.4 979.2l1.2 3.6 7.2 1.4 6.8 42.7.2-.1.2-.1.2-.1.2-.2.1-.1.3-.4.1-.1.1-.3v-.2l.1-.4v-.2l-.1-.5-3.7-41-.3-3.7-12.6-.3z"/><path fill="#DADDDF" d="M888 1003l-4.3-1.1-2 22c-.3 1.6.9 3.2 2.6 3.2h-.1l3.8-24.1z"/><path fill="#B2B6BB" d="M885.8 1026.6c-.4.3-1 .5-1.5.5.5-.1 1.1-.2 1.5-.5zM886.8 1025.3l-.2.4.2-.4 11.7-46-11.7 46z"/><path fill="#B2B6BB" d="M898.5 979.2h-12.7l-2.1 22.7 4.3 1.1-3.8 24h.1c.6 0 1.1-.2 1.5-.5l.6-.6.2-.3.2-.4 11.7-46z"/><path fill="#DADDDF" d="M843.9 983.1l-5.2-1-3.8 41.8c-.3 1.6.9 3.2 2.6 3.2h-.1l6.5-44z"/><path fill="#B2B6BB" d="M838.6 1026.8zM838.3 982.1h.4l.2-2.9-.6 2.9z"/><path fill="#B2B6BB" d="M838.9 979.2l-.3 2.9 5.2 1-6.6 43.9h.5l.8-.2.3-.2.6-.6.4-.7 11.7-46-12.6-.1z"/><path fill="#DDD" d="M980.1 401.4l1.5-61.4a8.2 8.2 0 00-8-8.4l-61.4-1.5a8.2 8.2 0 00-8.4 8l-1.5 61.4a8.2 8.2 0 008 8.4l61.4 1.5c4.5.1 8.2-3.5 8.4-8z"/><path stroke="#858990" stroke-dasharray="2.4 2.4" stroke-miterlimit="10" stroke-width="1.4" d="M980.1 401.4l1.5-61.4a8.2 8.2 0 00-8-8.4l-61.4-1.5a8.2 8.2 0 00-8.4 8l-1.5 61.4a8.2 8.2 0 008 8.4l61.4 1.5c4.5.1 8.2-3.5 8.4-8z"/><path fill="#fff" d="M968.9 386.4l-4-61.3a8.2 8.2 0 00-8.7-7.6l-61.3 4a8.2 8.2 0 00-7.6 8.7l4 61.3a8.2 8.2 0 008.7 7.6l61.3-4a8.1 8.1 0 007.6-8.7z"/><path fill="#858990" d="M926 340.4l-4.1 11.4a1 1 0 01-.9.7l-11.9 2c-1 .2-1.3 1.4-.5 2l9.5 7.4c.3.3.5.7.4 1.1l-1.8 12c-.1 1 .9 1.7 1.7 1.1l10-6.8c.3-.2.8-.3 1.1-.1l10.8 5.4c.9.4 1.9-.4 1.6-1.3l-3.3-11.6c-.1-.4 0-.8.3-1.1l8.5-8.6c.7-.7.2-1.9-.8-1.9l-12.1-.4c-.4 0-.8-.2-1-.6l-5.6-10.7c-.3-1-1.6-.9-1.9 0zM823.3 620.4H665a4.2 4.2 0 01-4.2-4.2v-88c0-2.3 1.9-4.2 4.2-4.2h158.2c2.3 0 4.2 1.9 4.2 4.2v88a4 4 0 01-4.1 4.2z"/><path fill="#DDD" d="M819.5 620.4H661.3a4.2 4.2 0 01-4.2-4.2v-88c0-2.3 1.9-4.2 4.2-4.2h158.2c2.3 0 4.2 1.9 4.2 4.2v88c0 2.3-1.9 4.2-4.2 4.2z"/><path fill="#858990" d="M709.7 552.1h-5.9l-14.7 20.7 14.7 20.7h5.9l5.7-5.7-15-15 15-15-5.7-5.7z"/><path fill="#3F4249" d="M703.8 552.1l-20.7 20.7 20.7 20.7 5.7-5.7-15-15 15-15-5.7-5.7z"/><path fill="#858990" d="M779.4 552.1h-5.9l.7 6.2 14.5 14.5-14.5 14.5-.7 6.2h5.9l20.7-20.7-20.7-20.7z"/><path fill="#3F4249" d="M773.5 552.1l-5.7 5.7 15 15-15 15 5.7 5.7 20.7-20.7-20.7-20.7z"/><path fill="#858990" d="M745.2 536.4l-20.5 70.2h5.9l28-67.1-7.5-3.1h-5.9z"/><path fill="#3F4249" d="M717.2 603.5l7.5 3.1 28-67.1-7.5-3.1-28 67.1z"/><path fill="#DDD" d="M1306.3 647a30.4 30.4 0 110-60.8 30.4 30.4 0 010 60.8z"/><path fill="#858990" d="M1315.2 613c-.9 0-1.7.3-2.3.9l-9.8-5.7.1-.6a3.7 3.7 0 10-7.4 0c0 2.1 1.6 3.7 3.7 3.7.9 0 1.7-.3 2.3-.9l9.8 5.7-.1.6.1.6-9.8 5.7c-.6-.5-1.4-.9-2.3-.9-2 0-3.7 1.6-3.7 3.7s1.6 3.7 3.7 3.7c2 0 3.7-1.6 3.7-3.7l-.1-.6 9.8-5.7c.6.5 1.4.9 2.3.9a3.7 3.7 0 100-7.4z"/><path fill="#3e87cd" d="M1103.8 369.1V530a4 4 0 004 4h247.1a4 4 0 004-4V369.1a4 4 0 00-4-4h-247.1a4 4 0 00-4 4z" class="change-color-in-svg"/><path fill="#fff" d="M1103.8 369.1V530a4 4 0 004 4h247.1a4 4 0 004-4V369.1a4 4 0 00-4-4h-247.1a4 4 0 00-4 4z" opacity=".3"/><path fill="#3e87cd" d="M1099.3 369.1V530a4 4 0 004 4h247.1a4 4 0 004-4V369.1a4 4 0 00-4-4h-247.1a4 4 0 00-4 4z" class="change-color-in-svg"/><path fill="#fff" d="M1099.3 369.1V530a4 4 0 004 4h247.1a4 4 0 004-4V369.1a4 4 0 00-4-4h-247.1a4 4 0 00-4 4z" opacity=".7"/><path fill="#3e87cd" d="M1249.8 449.6a29 29 0 11-58 0 29 29 0 0158 0z" class="change-color-in-svg"/><path fill="#fff" d="M1215.1 461.8v-24.5l18.2 12.3-18.2 12.2zM1350.4 534h-247.2a3.9 3.9 0 01-3.9-3.9v-10.6h255.1v10.6a4 4 0 01-4 3.9z"/><path fill="#B1B5BA" d="M1328.9 525.7h-211.8v2.6h211.8v-2.6zM1110.2 530.9h-6.7a.9.9 0 01-.8-.8v-6.7c0-.4.4-.8.8-.8h6.7c.4 0 .8.4.8.8v6.7c0 .5-.3.8-.8.8z"/><path fill="#61656D" d="M1106.3 524.7h-1.2v4.1h1.2v-4.1zM1108.5 524.7h-1.2v4.1h1.2v-4.1z"/><path fill="#C7C7C7" d="M1350.5 531.2h-6.7a.9.9 0 01-.8-.8v-6.7c0-.4.4-.8.8-.8h6.7c.4 0 .8.4.8.8v6.7c0 .5-.4.8-.8.8z"/><path fill="#61656D" d="M1345.8 526h-1.6v2h1.6v-2z"/><path fill="#61656D" d="M1347.6 529.4l-2.4-1.3V526l2.4-1.3v4.7zM1348.8 525.5l.4-.4c.4.4.7.9.8 1.5.1.9-.1 1.7-.8 2.3l-.4-.4c.4-.4.6-.9.6-1.5.1-.6-.1-1.1-.6-1.5z"/><path fill="#61656D" d="M1348.5 528.2l-.4-.4c.2-.2.3-.5.3-.8 0-.3-.1-.6-.3-.8l.4-.4c.6.7.6 1.7 0 2.4zM1159.7 527.1c0 .5.1.9.4 1.3h-43.3v-2.6h43.3c-.3.3-.4.8-.4 1.3z"/><path fill="#61656D" d="M1163.8 527.1c0 .6-.1 1.2-.4 1.7a4 4 0 01-3.6 2.2c-1.6 0-2.9-.9-3.5-2.2-.3-.5-.4-1.1-.4-1.7a3.9 3.9 0 013.9-3.9c1.6 0 2.9.9 3.5 2.2.4.5.5 1 .5 1.7z"/><path fill="#3e87cd" d="M1108.2 375.9a2.5 2.5 0 100-5 2.5 2.5 0 000 5z" class="change-color-in-svg"/><path fill="#61656D" d="M1117.4 375.9a2.5 2.5 0 100-5 2.5 2.5 0 000 5z"/><path fill="#21252B" d="M1126.5 375.9a2.5 2.5 0 100-5 2.5 2.5 0 000 5z"/><path fill="#B1B5BA" d="M1132.6 665.6h102.9c4 0 7.2 3.2 7.2 7.2v135.4c0 4-3.2 7.2-7.2 7.2h-102.9c-4 0-7.2-3.2-7.2-7.2V672.8c0-3.9 3.2-7.2 7.2-7.2z"/><path fill="#fff" d="M1129.2 665.6h102.9c4 0 7.2 3.2 7.2 7.2v135.4c0 4-3.2 7.2-7.2 7.2h-102.9c-4 0-7.2-3.2-7.2-7.2V672.8c0-3.9 3.2-7.2 7.2-7.2z"/><path fill="#3e87cd" d="M1205.1 741.3h-49c-2 0-3.6-1.6-3.6-3.6v-49c0-2 1.6-3.6 3.6-3.6h49c2 0 3.6 1.6 3.6 3.6v49c0 2-1.6 3.6-3.6 3.6z" class="change-color-in-svg"/><path fill="#fff" d="M1205.1 741.3h-49c-2 0-3.6-1.6-3.6-3.6v-49c0-2 1.6-3.6 3.6-3.6h49c2 0 3.6 1.6 3.6 3.6v49c0 2-1.6 3.6-3.6 3.6z" opacity=".7"/><path fill="#3e87cd" d="M1180.5 703.9a5 5 0 100-10 5 5 0 000 10zM1152.5 737.7v-13.5l19-14.2a2 2 0 012.5.1l6.6 5.8 13.4-10.5a2 2 0 012.6.1l12 10.5v21.8c0 2-1.6 3.6-3.6 3.6h-49a3.7 3.7 0 01-3.5-3.7zM1210.7 763.7h-60.3c-1 0-1.8-.8-1.8-1.8v-3.7c0-1 .8-1.8 1.8-1.8h60.3c1 0 1.8.8 1.8 1.8v3.7c0 1-.8 1.8-1.8 1.8z" class="change-color-in-svg"/><path fill="#fff" d="M1210.7 763.7h-60.3c-1 0-1.8-.8-1.8-1.8v-3.7c0-1 .8-1.8 1.8-1.8h60.3c1 0 1.8.8 1.8 1.8v3.7c0 1-.8 1.8-1.8 1.8z" opacity=".3"/><path fill="#61656D" d="M1210.7 781.4h-60.2c-1 0-1.8-.8-1.8-1.8s.8-1.8 1.8-1.8h60.2c1 0 1.8.8 1.8 1.8s-.8 1.8-1.8 1.8zM1199.9 795.9h-38.6c-1 0-1.8-.8-1.8-1.8s.8-1.8 1.8-1.8h38.6c1 0 1.8.8 1.8 1.8.1.9-.8 1.8-1.8 1.8z"/><path fill="#3e87cd" d="M581.9 256.1h266.3c4.8 0 8.6 3.9 8.6 8.6v145.9c0 4.8-3.9 8.6-8.6 8.6H581.9a8.6 8.6 0 01-8.6-8.6V264.7c0-4.7 3.8-8.6 8.6-8.6z" class="change-color-in-svg"/><path fill="#fff" d="M581.9 256.1h266.3c4.8 0 8.6 3.9 8.6 8.6v145.9c0 4.8-3.9 8.6-8.6 8.6H581.9a8.6 8.6 0 01-8.6-8.6V264.7c0-4.7 3.8-8.6 8.6-8.6z" opacity=".2"/><path fill="#3e87cd" d="M577.8 256.1h266.3c4.8 0 8.6 3.9 8.6 8.6v145.9c0 4.8-3.9 8.6-8.6 8.6H577.8a8.6 8.6 0 01-8.6-8.6V264.7a8.5 8.5 0 018.6-8.6z" class="change-color-in-svg"/><path fill="#fff" d="M577.8 256.1h266.3c4.8 0 8.6 3.9 8.6 8.6v145.9c0 4.8-3.9 8.6-8.6 8.6H577.8a8.6 8.6 0 01-8.6-8.6V264.7a8.5 8.5 0 018.6-8.6z" opacity=".6"/><path fill="#3e87cd" d="M819.8 376.6H752a5 5 0 01-5-5v-67.8a5 5 0 015-5h67.8a5 5 0 015 5v67.8a5 5 0 01-5 5z" class="change-color-in-svg"/><path fill="#3e87cd" d="M819.8 376.6H752a5 5 0 01-5-5v-67.8a5 5 0 015-5h67.8a5 5 0 015 5v67.8a5 5 0 01-5 5z" class="change-color-in-svg"/><path fill="#fff" d="M819.8 376.6H752a5 5 0 01-5-5v-67.8a5 5 0 015-5h67.8a5 5 0 015 5v67.8a5 5 0 01-5 5z" opacity=".8"/><path fill="#fff" d="M785.6 324.9a6.9 6.9 0 100-13.8 6.9 6.9 0 000 13.8z"/><path fill="#3e87cd" d="M747 371.7V353l26.3-19.6c1.1-.8 2.5-.7 3.5.1l9.1 8 18.5-14.5c1.1-.8 2.5-.8 3.6.1l16.7 14.6v30.1a5 5 0 01-5 5H752c-2.8-.2-5-2.4-5-5.1z" class="change-color-in-svg"/><path fill="#fff" d="M715.8 308.7H600a2.9 2.9 0 01-2.9-2.9v-4.2c0-1.6 1.3-2.9 2.9-2.9h115.8c1.6 0 2.9 1.3 2.9 2.9v4.2c.1 1.6-1.3 2.9-2.9 2.9z"/><path fill="#3e87cd" d="M716.2 334.9H599.6a2.6 2.6 0 01-2.6-2.6c0-1.4 1.1-2.6 2.6-2.6h116.6c1.4 0 2.6 1.1 2.6 2.6s-1.2 2.6-2.6 2.6zM662.9 376.9h-63.3a2.6 2.6 0 01-2.6-2.6c0-1.4 1.1-2.6 2.6-2.6h63.3c1.4 0 2.6 1.1 2.6 2.6s-1.2 2.6-2.6 2.6zM716.2 355.9H599.6a2.6 2.6 0 01-2.6-2.6c0-1.4 1.1-2.6 2.6-2.6h116.6c1.4 0 2.6 1.1 2.6 2.6s-1.2 2.6-2.6 2.6z" class="change-color-in-svg"/><path fill="#fff" d="M716.2 334.9H599.6a2.6 2.6 0 01-2.6-2.6c0-1.4 1.1-2.6 2.6-2.6h116.6c1.4 0 2.6 1.1 2.6 2.6s-1.2 2.6-2.6 2.6zM662.9 376.9h-63.3a2.6 2.6 0 01-2.6-2.6c0-1.4 1.1-2.6 2.6-2.6h63.3c1.4 0 2.6 1.1 2.6 2.6s-1.2 2.6-2.6 2.6zM716.2 355.9H599.6a2.6 2.6 0 01-2.6-2.6c0-1.4 1.1-2.6 2.6-2.6h116.6c1.4 0 2.6 1.1 2.6 2.6s-1.2 2.6-2.6 2.6z" opacity=".2"/><path fill="#DDD" d="M1138.6 318.3a30.4 30.4 0 100-60.8 30.4 30.4 0 000 60.8z"/><path fill="#858990" d="M1131 283.8h2.6l5.1-7.6.4-4.3c.1-.7.8-1.1 1.4-.8 1.1.5 2.2 2 2.3 6.2v5l7.9.1c1 0 1.8.8 1.8 1.8l.2 12.4c0 2.3-1.4 4.4-3.5 5l-.9.1c-2.1 0-12.9-1.7-12.9-1.7h-4.4v-16.2zM1123.6 283.8l1.6 16.4h4.4v-16.4h-6z"/><path fill="#DDD" d="M887.2 708.4a32.2 32.2 0 110-64.4 32.2 32.2 0 010 64.4z"/><path fill="#858990" d="M897.5 662.4c-.2-.6-.8-1-1.4-.8-.6.2-1 .8-.8 1.4v.2l-22.4 12.1c-.2-.5-.8-.8-1.4-.6-.6.2-1 .8-.8 1.4l2.9 9.8c.2.6.8 1 1.4.8.6-.2.9-.7.8-1.3l3.9-.3v1.4c0 1.4 1.1 2.6 2.6 2.6h6.5c1.4 0 2.6-1.1 2.6-2.6v-2.3l9.9-.7v.2c.2.6.8 1 1.4.8.6-.2 1-.8.8-1.4l-6-20.7zm-7.9 24.3c0 .4-.4.8-.8.8h-6.5a.9.9 0 01-.8-.8v-1.6l8-.6v2.2h.1z"/><path fill="#B2B6BB" d="M1339.1 1028.2H206.5c-.4 0-.6-.2-.6-.6 0-.4.2-.6.6-.6h1132.7c.4 0 .6.2.6.6 0 .4-.4.6-.7.6z"/><path stroke="#21252B" stroke-linecap="round" stroke-miterlimit="10" stroke-width=".7" d="M291 853.5l-5.7 140.8M249.6 914.7l25.3 29.7M308.5 950l-22.8 34.6M319.6 891.9l-31.4 35.9"/><path fill="#3e87cd" d="M317.5 911.2c7.4-8.8 9.7-19 5-23-4.7-4-14.5-.2-22 8.6-7.4 8.7-9.6 19-5 23 4.7 4 14.5.1 22-8.6z" class="change-color-in-svg"/><path fill="#000" d="M322.8 888.5l-27.4 31.2.2.1c4.7 4 14.5.1 21.9-8.6 7.3-8.5 9.6-18.5 5.3-22.7z" opacity=".3"/><path fill="#3e87cd" d="M264.7 932.2c3.7-3 2-11-3.6-17.7-5.6-6.8-13.1-10-16.8-7-3.6 3-2 11 3.7 17.8 5.6 6.8 13.1 10 16.7 7z" class="change-color-in-svg"/><path fill="#000" d="M244.1 907.8l20.7 24.3-.1.1c-3.6 3-11.1-.1-16.8-6.9-5.4-6.6-7.1-14.4-3.8-17.5z" opacity=".3"/><path stroke="#21252B" stroke-linecap="round" stroke-miterlimit="10" stroke-width=".7" d="M253.4 955l26.7 20.8"/><path fill="#3e87cd" d="M271.8 969c2.9-3.6-.3-11-7.2-16.6-7-5.5-15-7-17.8-3.3-3 3.6.2 11 7.1 16.6 7 5.5 15 7 17.8 3.4z" class="change-color-in-svg"/><path fill="#000" d="M246.6 949.4l25.2 19.6-.1.1c-2.9 3.7-10.9 2.2-17.8-3.3-6.7-5.4-9.9-12.7-7.3-16.4z" opacity=".3"/><path fill="#3e87cd" d="M301.4 864c.6-11.4-3.9-21-10-21.2-6-.3-11.2 8.8-11.7 20.3-.6 11.5 3.9 21 9.9 21.3 6 .2 11.3-8.8 11.8-20.3z" class="change-color-in-svg"/><path fill="#000" d="M279.7 863.2c.5-11.4 5.8-20.5 11.8-20.2l-1.9 41.5c-6-.4-10.4-9.9-9.9-21.3z" opacity=".3"/><path fill="#3e87cd" d="M311 963c5-7.8 5.5-16.3 1.1-19.1-4.3-2.8-11.8 1.3-16.8 9.1-5 7.9-5.6 16.4-1.3 19.2 4.4 2.8 12-1.3 17-9.1z" class="change-color-in-svg"/><path fill="#000" d="M295.3 953c-4.9 7.6-5.5 16-1.5 18.9l18.3-28-1.1-.5c-4.3-1.6-11.1 2.4-15.7 9.6z" opacity=".3"/><path stroke="#21252B" stroke-linecap="round" stroke-miterlimit="10" stroke-width=".7" d="M282.8 992.6l-15.6-97.2"/><path fill="#3e87cd" d="M268.7 909c5.3-.8 8.3-9.8 6.7-20-1.6-10.2-7.3-17.8-12.6-17-5.4 1-8.4 9.9-6.8 20 1.7 10.3 7.3 17.9 12.7 17z" class="change-color-in-svg"/><path fill="#000" d="M256 892.1c-1.6-10.2 1.4-19.2 6.7-20.1l5.9 37c-5.3 1-11-6.6-12.6-16.9z" opacity=".3"/><path fill="#868A91" d="M275.9 1027h18.7c3.5 0 6.3-2.8 6.3-6.3v-24.8h-31.4v24.8a6.4 6.4 0 006.4 6.3z"/><path fill="#868A91" d="M301.7 992.6h-32.8c-.9 0-1.7.7-1.7 1.7 0 .9.7 1.7 1.7 1.7h32.8c.9 0 1.7-.7 1.7-1.7-.1-.9-.8-1.7-1.7-1.7z"/><path fill="#61656D" d="M301 995.9h-28.6c-.9 0-1.7-.7-1.7-1.7 0-.9.7-1.7 1.7-1.7h-3.5c-.9 0-1.7.7-1.7 1.7 0 .9.7 1.7 1.7 1.7h.7v24.7c0 3.5 2.8 6.3 6.3 6.3h10.2a9.2 9.2 0 01-9.1-7.5l-4.5-23.1H301v-.4z"/><path fill="#966363" d="M837.5 437c-.8.6-1 1.6-.5 2.4l7.7 13.2-.7-.6a2.7 2.7 0 00-3.8-.1 2.7 2.7 0 00-.3 3.7l1.6 2-.6-.7c-1-1.1-2.7-1.2-3.7-.2s-1 2.6-.1 3.6l1.5 1.6-1.2-1.2c-.9-.9-2.3-1-3.2-.1-.8.7-1 2-.4 2.9l7.2 13a27 27 0 007.8 8.7l6.1 12.1 16.4-9.9-7.5-10.9-6.1-14.7a19 19 0 00-2.8-5.5L840 437.4a1.6 1.6 0 00-2.5-.4z"/><path fill="#000" d="M839.8 468.8c-.6 0-1.1-.2-1.6-.6l-3.4-3.1-.9-1.7 5.2 3.8c.4.3.9.4 1.3.1.2-.2.4-.4.4-.7 0-.3 0-.6-.2-.8l-4-5.2.5-.4 6 5c.4.4 1.1.5 1.5.1.3-.2.5-.5.5-.8.1-.3 0-.6-.2-.9l-4.2-6.4.6-.4 4.7 6 .1.1.5.6c.4.6 1.3.8 1.9.3l1-.7-.8 1.3-.7 1c-.5.1-1.1-.1-1.6-.3-.2.5-.5 1-1 1.3-1 .7-2.3.5-3.2-.3l-.2-.2c.1.3.1.5 0 .8-.1.6-.4 1.2-.9 1.6-.3.4-.8.5-1.3.5z" opacity=".1"/><path fill="#966363" d="M850.7 464.3l-4.2.3c-3.1 0-5.4-2-5.9-4.7v-.1c-.1-.8.7-1.1.9-1.1l12.7-2.2"/><path stroke="#000" stroke-miterlimit="10" stroke-width="1.3" d="M854.3 457l-12.7 2.2c-.2 0-.4.3-.4.5a5.3 5.3 0 005.5 4.2l3.8-.3s-3.6 2.5-3 7.7" opacity=".1"/><path fill="#000" d="M846.7 457.7l-2.3-4.9.5-.3 3.2 4.9-1.4.3z" opacity=".1"/><path fill="#fff" d="M869.5 483.1l-15.8 11.4-3.1-5.7 15.3-10.3 3.6 4.6z"/><path fill="#966363" d="M1172 542.1l2.6-9.3c1.1-3.9 2.9-7.5 5.2-10.7l4.5-6.1c.2-.3.5-.3.8-.1a4.5 4.5 0 011.3 5.4l-3.5 7.6 18.9-15.8c.8-.6 1.9-.6 2.5.1.6.7.7 1.7 0 2.4l-9.2 10.9 13.5-12.6c.7-.7 1.8-.7 2.5 0 .8.7.8 1.9.1 2.7l-12.1 13.7 11-9.9c.7-.7 1.8-.6 2.5.1s.7 1.8 0 2.6l-9.9 10.7 9.1-6.9c.6-.5 1.6-.5 2.1.1.6.6.6 1.6 0 2.2l-11.3 12c-4 4.3-8.7 8-13.8 11l-1.1.6-20.1 17.7-13.5-15.4 17.9-13zM986.8 1014.9l-51.4 1.3 20.5-14.6a13 13 0 005.5-10.3l.9-16.3 27.9.1-3.4 39.8z"/><path fill="#000" d="M981.1 996.1v-.3a3.3 3.3 0 00-2.8-3.6l-16.7-2.4.2-3.2h27.7l-2.5 27.2-22.4-2.5 7.4-2.9c5-2.1 8.6-6.8 9.1-12.3z" opacity=".1"/><path fill="#966363" d="M1079.3 1013.9h-23.1l-4.3-39.1 27.3.1.1 39z"/><path fill="#000" d="M1073.5 1007.3l-.6-12a3.4 3.4 0 00-2.8-3.1l-16.6-2.5-.4-3.3 26 .1.1 27.7-5.7-6.9z" opacity=".1"/><path fill="#3e87cd" d="M1075.7 680.5l5.1 306h-30l-26.1-260.6c-.2-1.7-1.6-3-3.3-3a3.2 3.2 0 00-3.2 3l-27.8 260.6h-30l6.9-306h108.4z" class="change-color-in-svg"/><path fill="#fff" d="M1075.7 680.5l5.1 306h-30l-26.1-260.6c-.2-1.7-1.6-3-3.3-3a3.2 3.2 0 00-3.2 3l-27.8 260.6h-30l6.9-306h108.4z" opacity=".2"/><path fill="#3e87cd" d="M1081.6 986.5h-32l-.6-6.5h32.5l.1 6.5z" class="change-color-in-svg"/><path fill="#000" d="M1081.6 986.5h-13.4l-.3-6.5h13.6l.1 6.5zM972.4 982.9l29.6-246.1c.9-7.9 7.7-13.9 15.6-13.9h3.7a3.2 3.2 0 00-3.2 3l-27.6 259.2-18.1-2.2z" opacity=".1"/><path fill="#3e87cd" d="M991.1 986.5h-31.9l.5-6.5h32.1l-.7 6.5z" class="change-color-in-svg"/><path fill="#000" d="M991.1 986.5h-19l.7-6.5h19l-.7 6.5zM1075.7 680.5l5.2 299.3-12.9.1-6.2-313 13.9 13.6z" opacity=".1"/><path fill="#21252B" d="M1001.7 467.2a9.9 9.9 0 01-9.5-10.3 9.9 9.9 0 0110.3-9.5c.3 0 1.1-.2 1 .1-2.2 8.6.4 19.7-1.8 19.7z"/><path fill="#966363" d="M1045.9 506.5c0 .5-12.4 27.7-21.5 28.1-7.9.4-12.9-25.2-12.8-25.7l.6-13.3v-6.9c-.4-1.6-2.3-3.1-2.3-5.2-.6-9.7-1.7-18.5-1.7-18.5s31.7-21.2 33.7 3.5l.8 3.6 3.2 34.4z"/><path fill="#966363" d="M1003.4 436s-11.3 58.3 15.6 61.1c23.3 2.4 24.8-33.9 24.8-33.9l-1.8-23.4-18.1-6.6-20.5 2.8z"/><path fill="#21252B" d="M1011.1 449.9c2.7-3.8 7.2-6.6 12-6.5 5.4.1 9.8 4.4 9.3 10.7l-.1 1.4c-.1 1.3.9 2.5 2.2 2.6 2.5.1 4.5 2.1 4.4 4.6l-.1 4.1c0 .5.4.9.9.9 0 0 1.2.2 1.4-.8l.6-4.4-4.2-24.8-20.6-5.4-8.6 7.3 2.8 10.3z"/><path fill="#000" d="M1042.7 472.2s-1.6-.1-2.9-2.2l3.2 5.5-.3-3.3zM1034.3 491.5a17.6 17.6 0 01-11.2 6.4 18.7 18.7 0 01-11.1 3.4l.3-6.6.9.5c2.9 1.5 7.1 2.5 11.8 1.2 4.1-1.1 6.8-3.5 8.5-5.6.1-.2.5-.2.7-.1.2.3.2.6.1.8z" opacity=".1"/><path fill="#fff" d="M1013.6 481.5l10.7-2.5s.3 4.2-4 5.4c-5.1 1.3-6.7-2.9-6.7-2.9z"/><path fill="#21252B" d="M1023.1 467.7a2.2 2.2 0 100-4.4 2.2 2.2 0 000 4.4z"/><path fill="#fff" d="M1022.1 465.3a.4.4 0 100-.8.4.4 0 000 .8z"/><path fill="#21252B" d="M1006 468.3a2.2 2.2 0 100-4.4 2.2 2.2 0 000 4.4z"/><path fill="#fff" d="M1005.1 465.8a.4.4 0 100-.8.4.4 0 000 .8z"/><path fill="#000" d="M1013.8 478.2l2.8.1c.3 0 .6-.3.7-.6 0-.3-.3-.6-.6-.7l-2.8-.1c-.7-.1-1.3-.7-1.2-1.3.1-.7.7-1.3 1.3-1.2.3 0 .6-.3.7-.6.1-.3-.3-.6-.6-.7-1.4 0-2.6 1-2.7 2.4-.1 1.5 1 2.6 2.4 2.7z" opacity=".3"/><path fill="#21252B" d="M996.7 463.9l.1 2.4c.1 4.6 4 8.3 8.7 8.2 4.6-.1 8.3-4 8.2-8.7l-.1-2.4c0-.7-.2-1.4-.7-1.9l3.3-.1c-.4.5-.7 1.2-.6 1.9l.1 2.4c.1 4.6 4 8.3 8.7 8.2 4.6-.1 8.3-4 8.2-8.7l-.1-2.4c-.1-1.7-1.5-3.1-3.2-3l-10.6.3h-.1l-8.2.2h-1.3l-9.4.3c-1.7.1-3 1.6-3 3.3zm21.8-2.5l10.7-.3c1 0 1.9.8 1.9 1.8l.1 2.4c.1 4-3.1 7.2-7 7.4-4 .1-7.2-3.1-7.4-7l-.1-2.4c.1-1 .9-1.8 1.8-1.9zm-20.6 2.5c0-1 .8-1.9 1.8-1.9l9.4-.3h1.3c1 0 1.9.8 1.9 1.8l.1 2.4c.1 4-3.1 7.2-7 7.4-4 .1-7.2-3.1-7.4-7l-.1-2.4z"/><path fill="#3F4249" d="M916.9 1023.4v-1.1c0-3.7 3-6.6 6.6-6.6h9.2c1.9 0 3.8-.7 5.2-2.1l23.5-22.3 7.3 9.6a6.3 6.3 0 009.8.2c1.2-1.4 3-2.3 4.8-2.3h4.9v24.2l-71.3.4z"/><path fill="#000" d="M916.9 1023.4v3.6h71.5v-4l-71.5.4zM966.1 997.3l-15.9 12.9a4.4 4.4 0 01-5.9-.3l-1.2-1.2 18.3-17.4c1-.3 2 .1 2.6.9l1.9 2.7c.5.6.6 1.4.3 2.2l-.1.2z"/><path fill="#3F4249" d="M1059.2 996.2h-1.9a3.5 3.5 0 00-3.5 3.1l-.4 7.2a16 16 0 01-1.7 6.4l-.7 1.3a17.5 17.5 0 00-1.9 8.1v1.3h36.6c0-3.6-1.1-7-3.1-10a16.2 16.2 0 01-2.7-7.4l-.8-7.2a3.6 3.6 0 00-3.5-2.8h-1.3"/><path fill="#000" d="M1085.5 1023.5H1049v3.5h36.5v-3.5zM1064 992.9h5.4c2.7 0 4.9 2.4 4.5 5.1l-1.2 9.8c-.4 3-3 5.3-6 5.3a6 6 0 01-6-5.4l-1.1-9.8c-.4-2.7 1.7-5 4.4-5z"/><path stroke="#fff" stroke-linecap="round" stroke-linejoin="round" stroke-miterlimit="10" stroke-width="1.3" d="M1057 999.4h19.4M1057.6 1004h18.2M1058.1 1008.5h17.2M947.9 1001.9l7.1 6.7M951.7 998.4l7.3 6.9M955.6 995.1l7.2 6.8"/><path stroke="#000" stroke-linecap="round" stroke-linejoin="round" stroke-miterlimit="10" stroke-width="1.5" d="M969.1 686.1h93.5" opacity=".3"/><path fill="#21252B" d="M1180.6 560.9l-59.3 56.5a12.6 12.6 0 01-19.6-2.7l-20.9-39.4-3.4 102.7c0 1.4-1.2 2.5-2.6 2.5H967.2c-.6 0-1.1-.5-1.2-1.1l-6-126.1-47.6 22.9c-5.9 2.9-13.1.6-16.3-5.2l-42.8-76.9 16.5-11.4 41.9 51.9 45.4-23.2a31 31 0 0111.5-3.3l43.3-4.1 12.5 23.8 20.9-23.7 37.3 9.9c7.7 2 14.1 7.3 17.6 14.4l23.5 47.5 42.4-30.3 14.5 15.3z"/><path stroke="#000" stroke-miterlimit="10" stroke-width="1.4" d="M1182.9 528.7s5.2 4.3 1.5 12.8" opacity=".1"/><path fill="#21252B" d="M1049 447c-.8-6.3-4.1-11-9.6-12.2-2.5-.5-4.9-.3-7 .3-.9.3-1.8-.3-2-1.1a9.6 9.6 0 00-9.3-7.3c-3.2 0-6 1.5-7.7 3.9-.6.8-1.6.9-2.3.3 0 0-6.4-5.1-14.8.1-5.6 3.5-8 11.1-4.7 17.7 3.4 6.7 12.2 8.7 17.6 3.6 1.9-1.8 3.4-4.5 3.7-8.5a16 16 0 00-.6-6.6h2.8c3.3-.2 8.5-.8 13.4-.1l-.3.2 8.7 2.9s2.7 23 4.1 22.8c6.1-1.3 8.8-10.3 8-16z"/><path fill="#966363" d="M1004.5 456.2l2.7-.6c.2-.1.5-.4.4-.7-.1-.3-.4-.5-.7-.4l-2.7.6-1 .2c-.7 0-2.1 0-3.5-.5-.3-.1-.6.1-.7.4-.1.3.1.6.4.7 1.5.4 3.1.5 3.8.5l1.3-.2z"/><path fill="#fff" d="M1023 528.6l-8.3-7.5 10.5-1.7 10 2.5-9.1 6.8c-1 .8-2.3.7-3.1-.1z"/><path fill="#fff" d="M1025.2 519.4l16 4 7.5-18.4-.4-5.1c-.1-.7-.7-1.2-1.4-1.2h-1.7l.5 5.2-20.5 15.5zM1011.9 504l.2-4.3h-1.3c-.9 0-1.6.7-1.6 1.5l-.2 20.8 16.2-2.7-13.3-15.3z"/><path stroke="#000" stroke-miterlimit="10" stroke-width=".7" d="M1038.7 523.1l-13.6-3.4-14.4 2.4" opacity=".1"/><path fill="#fff" d="M1171.2 542.7l13.1 13.4-4.3 4.2-13.4-14.2 4.6-3.4z"/><path fill="#966363" d="M1041.7 460.5s.9-4.3 5.5-3c5.2 1.5 4.3 12-2.6 14.4-4.3.9-3.7-1.7-3.4-5.2l.5-6.2z"/><path fill="#000" d="M1047.8 460.4c-.9-.5-1.8-.6-2.5-.3s-1.3.8-1.7 1.7c-.4.9-.6 2-.4 3.1v.9c0 .3.3.5.6.4.3 0 .5-.3.4-.6v-.9c0-.3-.1-1.7.3-2.6.3-.6.7-1 1.1-1.2.4-.1 1-.1 1.6.2.2.1.6 0 .7-.2.2 0 .1-.3-.1-.5z" opacity=".3"/><path fill="#000" d="M1123.7 575.9l-4.4-8.9-3.2 10.8a1.5 1.5 0 002.3 1.7l5.3-3.6zM911.7 534.6l2.5 2.9a2 2 0 003 0l9.8-10.7-15.3 7.8z" opacity=".4"/><path fill="#000" d="M960.1 553.3l3.4-1.6c.5-.3 1.1.3.8.8l-3.9 8.6-.3-7.8z"/><path fill="#858990" d="M964 636.9h114.9l-1.3 41c0 1.5-1.3 2.7-2.8 2.7H967.2c-.6 0-1.1-.5-1.2-1.1l-2-42.6z"/><path fill="#3F4249" d="M961.6 586.3h118.9l-1.6 50.6H964l-2.4-50.6z"/><path fill="#000" d="M1080.9 575.3l-2.3-5.3c-1.2-2.6-5-2-5.3.9l-10.7 109.7h12.1c1.6 0 2.9-1.3 2.9-2.8l3.3-102.5z" opacity=".4"/><path fill="#858990" d="M385.7 873.8l-42-175.1a8.3 8.3 0 018.2-10.3h-11.4a8.5 8.5 0 00-8.2 10.3l42 175.1 136.4.3-125-.3z"/><path fill="#858990" d="M412.4 859.3l-32.1-142.8c-.1-.5-.6-.9-1.1-.9h-1.9c.5.1.8.4.9.8l32.1 142.8c.2.7-.4 1.4-1.1 1.4h-1.6.2l3.4-.1a1 1 0 001.2-1.2z"/><path fill="#B1B5BA" d="M475.5 694.7a8.4 8.4 0 00-8.1-6.4H351.9a8.5 8.5 0 00-8.2 10.3l42 175.1 134 .3-44.2-179.3zm-64.2 166l-3.4.1c-.5 0-1-.4-1.1-.9L374.7 717c-.2-.7.4-1.3 1.1-1.3h3.5c.5 0 1 .4 1.1.9l32.1 142.8c.1.6-.5 1.3-1.2 1.3z"/><path fill="#21252B" d="M475.8 691.9c1.2.8 2.9.9 4.7.6 7.4-1.2 13-2.2 13.6-9.7.8-11.8-1.7-37.9-11.1-52.8-6.4 3.3-7.4 4.8-7.4 4.8l-9.7-3c0-.1-3.1 51.6 9.9 60.1zM452.5 684.3l-5.3-62.9c-3.2-.5-8.3 3.7-9.8 5.4-12 13.7-14.9 42-13.2 60.9.6 7.3 5.3 8.3 12.5 9.7 7.2 1.4 15.6 2.1 18.7-1.5 1.5-1.9-2.9-11.6-2.9-11.6z"/><path fill="#B1B5BA" d="M633.3 815c-1.2-8.1-8-13.9-16-14h-8.7l-3.4.8v.5l-74 9.4a22.9 22.9 0 00-19.3 17L460.3 1027h12.4l50.8-195.3a11 11 0 019.2-8.1l83.7-10.7a4.5 4.5 0 015 3.7l32 210.2h12.2L633.3 815z"/><path fill="#858990" d="M464.9 1027h-12.4L504 828.7a22.9 22.9 0 0119.3-17L607 801c8.9-1.1 17 5 18.4 13.9l32.3 212.1h-12.2l-32-210.2c-.4-2.4-2.5-4-5-3.7l-83.7 10.7a11 11 0 00-9.2 8.1L464.9 1027z"/><path fill="#B1B5BA" d="M666 885.9H484.7a6 6 0 01-6-6 6 6 0 016-6H666a6 6 0 016 6c.1 3.3-2.6 6-6 6z"/><path fill="#858990" d="M522.5 885.9H367.7a6 6 0 01-6-6 6 6 0 016-6h154.7a6 6 0 016 6c.1 3.3-2.6 6-5.9 6z"/><path fill="#858990" d="M545.8 877.8a6 6 0 01-5.7 8.1H367.7c-.8 0-1.5-.1-2.2-.4l3-11.7H540a6 6 0 015.8 4z"/><path fill="#F69797" d="M724.1 1027h36.6c.6-1.1 2.3-4.4.2-5.1l-24.9-10.7c-4.4-1.5-7.4-2.5-10-5.8-.5-.7-1-1.5-1.3-2.3l-19.4-44-23.9 11.5 20.3 35.2a17 17 0 012.3 9.1l.1 5a7.2 7.2 0 006.9 6.9h.1l13 .2z"/><path fill="#000" d="M761.4 1025.4l-.8 1.7H724l-13.1-.2h-.1a7.1 7.1 0 01-6.9-6.9l-.1-5c-.1-3.1-.6-6.6-2.3-9.1l-7.3-12.6.4-3.5 9.4 8.7 8.7 16.3s6.7 9.1 26.7 9.9l20 .7h2z" opacity=".1"/><path fill="#3F4249" d="M719.8 991.9l-21.3 8.8-13.5-22c-32.7-48.5-40.6-64.1-53.6-104.6H514.7a29.8 29.8 0 01-29.8-29.3l-.3-18.6h151.6c9.6 0 18.3 5.8 22 14.7l61.6 151z"/><path fill="#000" d="M682.9 959.4c-25.8-44.4-32.5-80.8-44.7-117.5-.8-2.5-4.7-15.8-19.6-15.8H556c-15.4-.4-24 23.3-36.8 14.8l-31.4-14.8h-3.1l.3 18.6a29.8 29.8 0 0029.8 29.3h116.7c14 41.8 21 56.4 53.6 104.6l13.5 21.9 5.5-2.3c-.1.2-16.5-30.8-21.2-38.8z" opacity=".2"/><path fill="#3e87cd" d="M733.1 1010.2l-6.5 1a43 43 0 01-24-3.2l1.4 14.8a4.8 4.8 0 004.8 4.2h53.5c2.6 0 3.2-3.6.7-4.4l-29.9-12.4z" class="change-color-in-svg"/><path fill="#000" d="M764.2 1026l-44.9-2.7c-3.5-.2-6.4-4.9-7.5-8.3l-1.3-4.3a43 43 0 01-7.9-2.6l1.4 14.8a4.8 4.8 0 004.8 4.2h53.5c.9-.1 1.6-.5 1.9-1.1z" opacity=".2"/><path fill="#F69797" d="M677.2 1027h36.6c.6-1.1 2.3-4.4.2-5.1l-24.9-10.7c-4.4-1.5-7.4-2.5-10-5.8-.5-.7-1-1.5-1.3-2.3l-19.4-44-23.9 11.5 20.3 35.2a17 17 0 012.3 9.1l.1 5a7.2 7.2 0 006.9 6.9h.1l13 .2z"/><path fill="#000" d="M714.5 1025.4l-.8 1.7h-36.6l-13.1-.2h-.1a7.1 7.1 0 01-6.9-6.9l-.1-5c-.1-3.1-.6-6.6-2.3-9.1l-7.3-12.6.4-3.5 11.1 8 7 17s6.7 9.1 26.7 9.9l20 .7h2z" opacity=".1"/><path fill="#F69797" d="M641.5 635.1l10.7-3.8a8 8 0 002.9-1.5l10.4-7.5c.2-.2.3-.5.1-.8a5 5 0 00-6-1.3l-4.1 1.8c-1 .4-2.1.4-3.1-.2-1-.6-1.7-1.7-1.7-2.8l-.6-12.4c0-.5.1-1.1.4-1.6l6.5-10.7a2 2 0 00-.8-2.8 2 2 0 00-2.3.4l-10.5 11-1 9.9 7.7-16.9-8 6.1c-3 2.3-5.2 5.4-6.5 8.9l-5.3 15.1-27.8 24.6-10.9 38.4 49.9-53.9z"/><path fill="#000" d="M643.5 603.4v-.1l4.2-5.7 2.1-1.6-5.5 7.8-2 5.7-.8-.3 2-5.8z" opacity=".1"/><path fill="#000" d="M642.6 608.8l1.7-5 5.5-7.8-8 6.1c-3 2.3-5.2 5.4-6.5 8.9.1.1 2.6-2.3 7.3-2.2z" opacity=".1"/><path fill="#000" d="M642.2 601.9l-2.9 4.2-1.1 4.3h-.8l1.1-5.1s1.2-1.5 2.1-2.2l1.6-1.2z" opacity=".1"/><path fill="#3e87cd" d="M499 690l71.7-10.6 51-45.9 2.7 44.5-43.8 23.9c-1.2.7-2.5 1.2-3.8 1.5L504.2 722" class="change-color-in-svg"/><path fill="#F69797" d="M510.8 688.4l-41.1 45.2-48.9-29.4 23.2-7 .6-.2a6.2 6.2 0 003.5-6.6l-2.6-23.6 24.3-11.5 5.6 24 .9 3.9 1.3 5.4c.7 2.9 3.5 4.1 6.2 3.8l27-4z"/><path fill="#3F4249" d="M672.9 991.9l-21.3 8.8-13.5-21.9c-32.7-48.5-40.6-64.1-53.6-104.6H467.8a29.8 29.8 0 01-29.8-29.3l-.3-18.6h151.6c9.6 0 18.3 5.8 22 14.7l61.6 150.9z"/><path fill="#000" d="M638.1 959.1c-25.8-44.4-26.8-56.2-38.4-93.1-3.2-10.2-10.5-12.4-15.7-12.4l-66 .3c-15.4-.4-42.1 1.2-54.8-7.4L441 826.2h-3.1l.3 18.6a29.8 29.8 0 0029.8 29.3h116.7c14 41.8 21 56.4 53.6 104.6l13.5 21.9 7.2-3c-.1.1-16.3-30.5-20.9-38.5z" opacity=".2"/><path fill="#3e87cd" d="M408.6 708.2l27.3-8.8 5.9 4.4a31.7 31.7 0 0047.4-10.9l.8-1.6 42.9-6.4V712.6l-28.6 9.4-2.6-4.7 8.2 14a26.1 26.1 0 011.2 24.3l-2.5 5.4a8 8 0 00-.8 4l.8 17c.4 8.8 3.3 17.3 8.3 24.6l13.3 19.5h-5a102 102 0 00-52.9 14.8l-24.8 15c-8 4.9-17.9-2.3-15.8-11.5l1-4.3c3.8-16.1 4.2-32.8 1.4-49l-9.8-46.1-28.6 1-1.8-6.6c-4-12.9 1.7-27 14.7-31.2z" class="change-color-in-svg"/><path fill="#3e87cd" d="M474.9 821.8l.4-.4c-1-1-1-2.7 0-3.7l-.4-.4c-1 1-2.7 1-3.7 0l-.4.4c1 1 1 2.7 0 3.7l.4.4c1-1.1 2.7-1.1 3.7 0z" class="change-color-in-svg"/><path fill="#000" d="M426.1 739c.8-.2 1.7.4 1.8 1.2l7 27.2c.9 3.9 3.5 9 7 11.1 8.1 4.9 17.4.9 17.4.9 1.3-.5 2.6.6 2.3 1.9l-2.7 11.4c-8.1 22.4-5.8 47.4 4.3 53.8l-15.5 9.4c-8 4.9-17.9-2.3-15.8-11.5l1-4.3c3.8-16.1 4.2-32.8 1.4-49l-9.4-50.2c-.3-.9.3-1.7 1.2-1.9z" opacity=".3"/><path fill="#3e87cd" d="M516.7 821.8l.4-.4c-1-1-1-2.7 0-3.7l-.4-.4c-1 1-2.7 1-3.7 0l-.4.4c1 1 1 2.7 0 3.7l.4.4c1-1.1 2.6-1.1 3.7 0z" class="change-color-in-svg"/><path fill="#000" d="M508.5 761a14 14 0 01-12.4 7l11.9 2.5-.3-5.5s-.1-2.3.8-4zM623.7 665.8l-46.8 30.3-75.1 17.6a2 2 0 00-1 3.1l3.5 5.3 73.3-18.8c.9-.2 1.8-.6 2.6-1l44.4-24.2-.9-12.3z" opacity=".3"/><path fill="#F69797" d="M548 818.3l-10.7-9.5a6 6 0 00-4-1.7l-17.3 1.5-28.6-2-10 13.4 24.9 1.6 2.4.9c4 1.6 8.5 1.5 12.4-.4h.1l3.3-1.6c.8-.4 1.8-.4 2.6-.1l8.5 3.5c.4.2.9.1 1.3-.2.7-.5.7-1.7 0-2.2l-6.3-4.7 9.4 6.8c.4.3 1 .4 1.5.2 1-.4 1.3-1.7.5-2.5l-6.7-6.6 8.8 8.6c.5.4 1.1.6 1.7.3 1.1-.4 1.4-1.8.7-2.6l-6.6-7.8 10.1 7.4c.7.6 1.8.4 2.3-.3.4-.3.4-1.4-.3-2z"/><path fill="#000" d="M532.8 822l-.2-.1-5.8-4.3c-.1-.1-.2-.3-.1-.4.1-.1.3-.2.4-.1l5.8 4.3c.1.1.2.3.1.4l-.2.2zM537.7 821.8l-.2-.1-6.3-6.2a.3.3 0 010-.4c.1-.1.3-.1.4 0l6.3 6.2c.1.1.1.3 0 .4l-.2.1zM524.8 819.5c1.9 1 5.2 2.6 6.3 3.3 1.6.9 2.1-.3 2.1-.3.1.5-.1 1.1-.5 1.4-.4.3-.9.3-1.3.2l-8.5-3.5c-.8-.3-1.8-.3-2.6.1l1.7-1c.9-.6 1.9-.6 2.8-.2z" opacity=".1"/><path fill="#3e87cd" d="M394.8 742.7l18.8 68.4c1.3 4.5 4.9 8.1 9.5 9.3l50 13.4 22.3-27.2-57.3-8.4-13.8-58.2-29.5 2.7z" class="change-color-in-svg"/><path fill="#000" d="M453.7 800.5l.2-.9 58.6 8.5-.1.4-58.7-8z" opacity=".3"/><path fill="#000" d="M486.5 817.4l16.7 1.9c1.3.1 2.6.6 3.7 1.3 1.6 1 4.6 2.4 8.5 2.3 0 0-5.7 2.5-13.1-1.2l-19.1-1.1 3.3-3.2z" opacity=".1"/><path fill="#3e87cd" d="M686.2 1010.2l-6.5 1a43 43 0 01-24-3.2l1.4 14.8a4.8 4.8 0 004.8 4.2h53.5c2.6 0 3.2-3.6.7-4.4l-29.9-12.4z" class="change-color-in-svg"/><path fill="#000" d="M717.4 1026l-44.9-2.7c-3.5-.2-6.4-4.9-7.5-8.3l-1.3-4.3a43 43 0 01-7.9-2.6l1.4 14.8a4.8 4.8 0 004.8 4.2h53.5c.9-.1 1.5-.5 1.9-1.1z" opacity=".2"/><path fill="#F4F4F4" d="M616 647.6a1.4 1.4 0 100-2.8 1.4 1.4 0 000 2.8zM602.1 681.8a1.4 1.4 0 100-2.8 1.4 1.4 0 000 2.8zM564 691.2a1.4 1.4 0 100-2.8 1.4 1.4 0 000 2.8zM531.4 712.3a1.4 1.4 0 100-2.8 1.4 1.4 0 000 2.8zM490.8 723.2a1.4 1.4 0 100-2.8 1.4 1.4 0 000 2.8zM503.7 758a1.4 1.4 0 100-2.8 1.4 1.4 0 000 2.8zM464.5 748.1a1.4 1.4 0 100-2.8 1.4 1.4 0 000 2.8zM470.6 808a1.4 1.4 0 100-2.8 1.4 1.4 0 000 2.8zM493.7 827.5a1.4 1.4 0 100-2.8 1.4 1.4 0 000 2.8zM497.5 788.3a1.4 1.4 0 100-2.8 1.4 1.4 0 000 2.8zM461.6 781.9a1.4 1.4 0 100-2.8 1.4 1.4 0 000 2.8zM402.6 716.5a1.4 1.4 0 100-2.8 1.4 1.4 0 000 2.8zM447.4 715.1a1.4 1.4 0 100-2.8 1.4 1.4 0 000 2.8zM409.1 772.6a1.4 1.4 0 100-2.8 1.4 1.4 0 000 2.8zM424.5 742.3a1.4 1.4 0 100-2.8 1.4 1.4 0 000 2.8zM435.3 796.8a1.4 1.4 0 100-2.8 1.4 1.4 0 000 2.8zM439.7 848.6a1.4 1.4 0 100-2.8 1.4 1.4 0 000 2.8zM455.1 821.9a1.4 1.4 0 100-2.8 1.4 1.4 0 000 2.8zM510.8 692.6a1.4 1.4 0 100-2.8 1.4 1.4 0 000 2.8z"/><path fill="#000" d="M399.2 730.2l18.3 67.7c2.2 7.7 8.6 12.3 17 13.7l52.1 5.8-13.5 16.4-49.8-13.3a13.8 13.8 0 01-9.7-9.6L394 739.3c-3.6-13.9 1.7-27 14.7-31.2-8.8 3.7-11.8 13-9.5 22.1z" opacity=".3"/><path fill="#858990" d="M388.5 877.1l10.2-39.1h1.4l-10 39.1h-1.6z"/><path fill="#000" d="M508 873.8l1.8 12.1h-6l-1.7-12.1h5.9zM363.5 875.6a6 6 0 014.3-1.8h.8l-3 11.7" opacity=".3"/><path fill="#21252B" d="M503 822.7h61.4c.5 0 .9.4.9.9v1.6c0 .5-.4.9-.9.9H503a.9.9 0 01-.9-.9v-1.6c0-.5.3-.9.9-.9z"/><path fill="#000" d="M503 822.7h61.4c.5 0 .9.4.9.9v1.6c0 .5-.4.9-.9.9H503a.9.9 0 01-.9-.9v-1.6c0-.5.3-.9.9-.9z" opacity=".6"/><path fill="#21252B" d="M544.4 822.7h107.1c.5 0 .9.4.9.9v1.6c0 .5-.4.9-.9.9H544.4a.9.9 0 01-.9-.9v-1.6c0-.5.4-.9.9-.9z"/><path fill="#000" d="M650.1 823.3h-109c-.2 0-.3-.1-.3-.3 0-.2.1-.3.3-.3h109c.2 0 .3.1.3.3 0 .2-.2.3-.3.3z" opacity=".6"/><path fill="#21252B" d="M544.2 822.7h16.1c1.2 0 2.3-.9 2.6-2.1l13.5-71.1c.3-1.6-.9-3.1-2.6-3.1h-16.1c-1.2 0-2.3.9-2.6 2.1l-13.5 71.1c-.2 1.7.9 3.1 2.6 3.1z"/><path fill="#000" d="M544.2 822.7h16.1c1.2 0 2.3-.9 2.6-2.1l13.5-71.1c.3-1.6-.9-3.1-2.6-3.1h-16.1c-1.2 0-2.3.9-2.6 2.1l-13.5 71.1c-.2 1.7.9 3.1 2.6 3.1z" opacity=".6"/><path fill="#21252B" d="M546.5 822.7h103.6c1.2 0 2.3-.9 2.6-2.1l13.5-71.1c.3-1.6-.9-3.1-2.6-3.1H560c-1.2 0-2.3.9-2.6 2.1L544 819.6c-.3 1.7.8 3.1 2.5 3.1z"/><path fill="#000" d="M605.6 782.6c-.6 1.4.1 2.7 1.5 2.7h.2a8.8 8.8 0 01-6.5 3.1c-3.1-.1-4.5-2.6-3.1-5.6a9.4 9.4 0 018-5.4c1.9.1 3.2 1.1 3.6 2.6-1.4.1-3 1.1-3.7 2.6z" opacity=".6"/><path fill="#B1B5BA" d="M510.1 815c-1.2-8.1-8-13.9-16-14h-8.7l-3.4.8v.5l-74 9.4a22.9 22.9 0 00-19.3 17L337.1 1027h12.4l50.8-195.3a11 11 0 019.2-8.1l83.7-10.7a4.5 4.5 0 015 3.7l32 210.2h12.2L510.1 815z"/><path fill="#858990" d="M341.6 1027h-12.4l51.6-198.3a22.9 22.9 0 0119.3-17l83.7-10.7c8.9-1.1 17 5 18.4 13.9l32.3 212.1h-12.2l-32-210.2c-.4-2.4-2.5-4-5-3.7l-83.7 10.7a11 11 0 00-9.2 8.1L341.6 1027z"/><path fill="#F69797" d="M470.6 682.7l-1.4.3a20.2 20.2 0 01-23.3-15.5l-5.7-26.3a6.4 6.4 0 014.9-7.6l24.6-5.3c4.5-1 8.9 1.9 9.9 6.4l5.3 24.5c2.2 10.3-3.4 21.5-14.3 23.5z"/><path fill="#fff" d="M467.9 668.9l.9.9c2.4 2.3 6.4 1.3 7.6-1.8l.5-1.4c.1-.3-.1-.6-.4-.5l-8.4 2.2c-.3 0-.4.4-.2.6z"/><path fill="#21252B" d="M463 658a2.1 2.1 0 100-4.2 2.1 2.1 0 000 4.2z"/><path fill="#fff" d="M464 657a.4.4 0 100-.8.4.4 0 000 .8z"/><path fill="#21252B" d="M478.9 655.5a2.1 2.1 0 100-4.2 2.1 2.1 0 000 4.2z"/><path fill="#fff" d="M480 654.4a.4.4 0 100-.8.4.4 0 000 .8z"/><path fill="#000" d="M473.7 663.7l-2.7.7c-.3.1-.7-.1-.7-.4-.1-.3.1-.7.4-.7l2.7-.7c.7-.2 1.1-.9.9-1.5-.2-.7-.9-1.1-1.5-.9-.3.1-.7-.1-.7-.4-.1-.3.1-.7.4-.7 1.3-.3 2.7.5 3 1.8.3 1.2-.5 2.5-1.8 2.8z" opacity=".3"/><path fill="#21252B" d="M486.8 640.4h1.1a29.7 29.7 0 00-50.6-13.5c-7.3 8.6-10.4 22.6-10.4 22.6 2.4 5.2 9 9.3 11.1 12.9.9 1.6 2.8-5.9 4.1-6.9.2-.1 1.8 1.5 2.9 2.6.7.7 1.9.4 2-.6.5-3.5.3-7.1-.4-10.5l-.7-3.1c6.7-2.2 26.9-10.1 31.4-11.6 1.1-.4 2.1 1.3 2.4 2.4L483 650l2.8-7.3 1-2.3z"/><path fill="#F69797" d="M447.4 668.3s-8.7 3-12.8-5.3c-4.2-8.3 6.3-12.7 10.2-4.3l3.7 9.3-1.1.3z"/><path fill="#000" d="M436.1 657.6c.8-.9 1.6-1.4 2.5-1.4.9 0 1.8.3 2.6 1.2.8.8 1.5 1.9 1.9 3.2l.3.9c.2.7-.9 1.2-1.2.4l-.3-1c-.1-.3-.7-1.9-1.5-2.6-.6-.6-1.2-.8-1.7-.8s-1.1.4-1.7 1c-.2.2-.6.3-.8.1a.8.8 0 01-.1-1z" opacity=".3"/><path fill="#fff" d="M479.1 644.7a8.2 8.2 0 00-5.5 4.6c-2.4-.4-4.3.4-5.1.9a8.6 8.6 0 00-8.3-2.7 8.4 8.4 0 004 16.2 8.4 8.4 0 005-12.6 7 7 0 014.1-.8 8.4 8.4 0 1016.1.5 8.6 8.6 0 00-10.3-6.1zm-15.2 18a7.2 7.2 0 01-8.8-5.3 7.2 7.2 0 015.3-8.8c3.9-1 7.9 1.4 8.8 5.3 1 3.8-1.4 7.8-5.3 8.8zm19-2.9a7.2 7.2 0 01-8.8-5.3 7.2 7.2 0 015.3-8.8c3.9-1 7.9 1.4 8.8 5.3 1 3.9-1.4 7.8-5.3 8.8z"/><path fill="#3e87cd" d="M444.3 667.6a1.8 1.8 0 100-3.6 1.8 1.8 0 000 3.6z" class="change-color-in-svg"/><path fill="#000" d="M445.2 667.1c-1.1.3-2.1-.4-2.4-1.4a2 2 0 010-1.1c-.4.4-.5 1-.4 1.6.2 1 1.2 1.6 2.2 1.3.4-.1.7-.3.9-.6 0 .2-.1.2-.3.2zM445.6 668.7l3.1-.7-2.4 7.7-.7-7z" opacity=".1"/><path fill="#21252B" d="M479.6 634.6c-16.9-4-14.1 21.3-31.6 17.9-16.4-3.2-1.6-23-1.6-23l14.5-2.6 19.5 2.4-.8 5.3z"/><path stroke="#F69797" stroke-linecap="round" stroke-miterlimit="10" stroke-width="1.3" d="M450.1 653.6s-2 .1-5-1.4"/><path fill="#000" d="M476.2 682.6l-.4-1.7h-.1s-4.9 2-10.4 1.2c-.3 0-.6.2-.7.5 0 .3.2.6.5.7l2.8.2 2.2-.1c.9.7 3.1 2.1 6.6 1.3l-.5-2.1z" opacity=".1"/><path fill="#21252B" d="M445.6 668.7s3 16.7 11.8 28c0 0-11.8 2.8-20.9.7-8.4-1.9 9.1-28.7 9.1-28.7z"/><path fill="#EAEAEA" d="M468.5 353.4v250.2l-238.1-4.3-.2-159.7 93.9-86.2h144.4z"/><path fill="#fff" d="M397.7 358.8L304 598.1h-29.5l95.4-239.3h27.8zM356.5 358.8l-93.8 239.3h-9.8l95.4-239.3h8.2z" opacity=".2"/><path fill="#fff" d="M215.6 609H474V348H330l-11.7 10.9v239.3H215.4l.2 10.8zm247.5-10.9H329.2V358.8h133.9v239.3z"/><path fill="#fff" d="M310.6 365.8h152.5v-4H315l-4.4 4zM303 372.7h160.1v-4H307.4l-4.4 4zM295.4 379.7h167.7v-4H299.8l-4.4 4zM287.8 386.7h175.3v-4H292.2l-4.4 4zM280.3 393.7h182.8v-4H284.6l-4.3 4zM272.6 400.6h190.5v-4H277l-4.4 4z"/><path fill="#fff" d="M457.9 470h.2V358.8h1V470h.2c.8 0 1.4.6 1.4 1.4v15.5c0 .8-.6 1.4-1.4 1.4H458c-.8 0-1.4-.6-1.4-1.4v-15.5c-.1-.8.5-1.4 1.3-1.4z"/><path fill="#DDD" d="M461 365.7h2v-4h-2v4zM461 372.8h2v-4h-2v4zM461 379.7h2v-4h-2v4zM461 386.6h2v-4h-2v4zM461 393.7h2v-4h-2v4zM461 400.6h2v-4h-2v4zM318.3 367.4h10.9v-1.7h-11v1.7zM318.3 374.5h10.9v-1.7h-11v1.7zM318.3 381.4h10.9v-1.7h-11v1.7zM318.3 388.3h10.9v-1.7h-11v1.7zM318.3 395.4h10.9v-1.7h-11v1.7zM318.3 402.3h10.9v-1.7h-11v1.7z"/></svg>