<svg width="1038" height="439" viewBox="0 0 1038 439" fill="none" xmlns="http://www.w3.org/2000/svg">
<g clip-path="url(#clip0)">
<g filter="url(#filter0_d)">
<rect x="568.99" y="53.5922" width="327.882" height="218.24" rx="12.5305" fill="#3E87CD" fill-opacity="0.4" shape-rendering="crispEdges"/>
</g>
<rect x="581.52" y="93.2722" width="53.2548" height="12.5305" rx="6.26527" fill="#EBEEF2" fill-opacity="0.4"/>
<rect x="641.04" y="93.2722" width="74.139" height="12.5305" rx="6.26527" fill="#EBEEF2" fill-opacity="0.4"/>
<rect x="602.405" y="112.068" width="32.3705" height="12.5305" rx="6.26527" fill="#EBEEF2" fill-opacity="0.4"/>
<rect x="641.041" y="112.068" width="74.139" height="12.5305" rx="6.26527" fill="#EBEEF2" fill-opacity="0.4"/>
<rect x="621.2" y="130.864" width="53.2548" height="12.5305" rx="6.26527" fill="#EBEEF2" fill-opacity="0.4"/>
<rect x="680.72" y="130.864" width="74.139" height="12.5305" rx="6.26527" fill="#EBEEF2" fill-opacity="0.4"/>
<rect x="621.2" y="149.66" width="35.5032" height="12.5305" rx="6.26527" fill="#EBEEF2" fill-opacity="0.4"/>
<rect x="662.969" y="149.66" width="35.5032" height="12.5305" rx="6.26527" fill="#EBEEF2" fill-opacity="0.4"/>
<rect x="754.859" y="180.986" width="53.2548" height="12.5305" rx="6.26527" transform="rotate(-180 754.859 180.986)" fill="#EBEEF2" fill-opacity="0.4"/>
<rect x="695.339" y="180.986" width="74.139" height="12.5305" rx="6.26527" transform="rotate(-180 695.339 180.986)" fill="#EBEEF2" fill-opacity="0.4"/>
<rect x="602.405" y="187.251" width="53.2548" height="12.5305" rx="6.26527" fill="#EBEEF2" fill-opacity="0.4"/>
<rect x="602.405" y="206.047" width="35.5032" height="12.5305" rx="6.26527" fill="#EBEEF2" fill-opacity="0.4"/>
<rect x="644.173" y="206.047" width="74.139" height="12.5305" rx="6.26527" fill="#EBEEF2" fill-opacity="0.4"/>
<rect x="724.577" y="206.047" width="53.2548" height="12.5305" rx="6.26527" fill="#EBEEF2" fill-opacity="0.4"/>
<rect x="736.063" y="237.373" width="53.2548" height="12.5305" rx="6.26527" transform="rotate(-180 736.063 237.373)" fill="#EBEEF2" fill-opacity="0.4"/>
<rect x="676.543" y="237.373" width="74.139" height="12.5305" rx="6.26527" transform="rotate(-180 676.543 237.373)" fill="#EBEEF2" fill-opacity="0.4"/>
<rect x="581.521" y="243.639" width="39.68" height="12.5305" rx="6.26527" fill="#EBEEF2" fill-opacity="0.4"/>
<ellipse cx="588.012" cy="69.6688" rx="5.7431" ry="5.74342" fill="#EBEEF2" fill-opacity="0.4"/>
<ellipse cx="606.016" cy="69.8478" rx="5.7431" ry="5.74342" fill="#EBEEF2" fill-opacity="0.4"/>
<ellipse cx="624.021" cy="70.0267" rx="5.7431" ry="5.74342" fill="#EBEEF2" fill-opacity="0.4"/>
<g filter="url(#filter1_d)">
<rect x="139.617" y="287.195" width="327.882" height="218.24" rx="12.5305" fill="#3E87CD" fill-opacity="0.4" shape-rendering="crispEdges"/>
</g>
<rect x="152.147" y="326.875" width="53.2548" height="12.5305" rx="6.26527" fill="#EBEEF2" fill-opacity="0.4"/>
<rect x="211.667" y="326.875" width="74.139" height="12.5305" rx="6.26527" fill="#EBEEF2" fill-opacity="0.4"/>
<rect x="173.032" y="345.671" width="32.3705" height="12.5305" rx="6.26527" fill="#EBEEF2" fill-opacity="0.4"/>
<rect x="211.668" y="345.671" width="74.139" height="12.5305" rx="6.26527" fill="#EBEEF2" fill-opacity="0.4"/>
<rect x="191.828" y="364.467" width="53.2548" height="12.5305" rx="6.26527" fill="#EBEEF2" fill-opacity="0.4"/>
<rect x="251.348" y="364.467" width="74.139" height="12.5305" rx="6.26527" fill="#EBEEF2" fill-opacity="0.4"/>
<rect x="191.828" y="383.262" width="35.5032" height="12.5305" rx="6.26527" fill="#EBEEF2" fill-opacity="0.4"/>
<rect x="233.596" y="383.262" width="35.5032" height="12.5305" rx="6.26527" fill="#EBEEF2" fill-opacity="0.4"/>
<rect x="325.487" y="414.589" width="53.2548" height="12.5305" rx="6.26527" transform="rotate(180 325.487 414.589)" fill="#EBEEF2" fill-opacity="0.4"/>
<rect x="265.967" y="414.589" width="74.139" height="12.5305" rx="6.26527" transform="rotate(180 265.967 414.589)" fill="#EBEEF2" fill-opacity="0.4"/>
<rect x="173.032" y="420.854" width="53.2548" height="12.5305" rx="6.26527" fill="#EBEEF2" fill-opacity="0.4"/>
<ellipse cx="158.639" cy="303.272" rx="5.7431" ry="5.74342" fill="#EBEEF2" fill-opacity="0.4"/>
<ellipse cx="176.643" cy="303.451" rx="5.7431" ry="5.74342" fill="#EBEEF2" fill-opacity="0.4"/>
<ellipse cx="194.648" cy="303.629" rx="5.7431" ry="5.74342" fill="#EBEEF2" fill-opacity="0.4"/>
<g filter="url(#filter2_d)">
<rect x="825.172" y="391.917" width="327.882" height="218.24" rx="12.5305" fill="#3E87CD" fill-opacity="0.4" shape-rendering="crispEdges"/>
</g>
<rect x="837.702" y="431.596" width="53.2548" height="12.5305" rx="6.26527" fill="#EBEEF2" fill-opacity="0.4"/>
<rect x="897.222" y="431.596" width="74.139" height="12.5305" rx="6.26527" fill="#EBEEF2" fill-opacity="0.4"/>
<ellipse cx="844.194" cy="407.993" rx="5.7431" ry="5.74342" fill="#EBEEF2" fill-opacity="0.4"/>
<ellipse cx="862.198" cy="408.172" rx="5.7431" ry="5.74342" fill="#EBEEF2" fill-opacity="0.4"/>
<ellipse cx="880.203" cy="408.351" rx="5.7431" ry="5.74342" fill="#EBEEF2" fill-opacity="0.4"/>
<g filter="url(#filter3_d)">
<rect x="481.495" y="286.451" width="327.882" height="218.24" rx="12.5305" fill="#3E87CD" fill-opacity="0.4" shape-rendering="crispEdges"/>
</g>
<rect x="494.026" y="326.131" width="53.2548" height="12.5305" rx="6.26527" fill="#EBEEF2" fill-opacity="0.4"/>
<rect x="553.546" y="326.131" width="241.213" height="12.5305" rx="6.26527" fill="#EBEEF2" fill-opacity="0.4"/>
<rect x="494.026" y="356.413" width="53.2548" height="54.299" rx="6.26527" fill="#EBEEF2" fill-opacity="0.4"/>
<rect x="553.546" y="358.502" width="241.213" height="12.5305" rx="6.26527" fill="#EBEEF2" fill-opacity="0.4"/>
<rect x="553.546" y="377.298" width="241.213" height="12.5305" rx="6.26527" fill="#EBEEF2" fill-opacity="0.4"/>
<rect x="553.546" y="396.093" width="95.0232" height="12.5305" rx="6.26527" fill="#EBEEF2" fill-opacity="0.4"/>
<ellipse cx="500.518" cy="302.528" rx="5.7431" ry="5.74342" fill="#EBEEF2" fill-opacity="0.4"/>
<ellipse cx="518.522" cy="302.707" rx="5.7431" ry="5.74342" fill="#EBEEF2" fill-opacity="0.4"/>
<ellipse cx="536.526" cy="302.886" rx="5.7431" ry="5.74342" fill="#EBEEF2" fill-opacity="0.4"/>
<rect x="553.546" y="419.066" width="241.213" height="12.5305" rx="6.26527" fill="#EBEEF2" fill-opacity="0.4"/>
<rect x="553.546" y="437.862" width="241.213" height="12.5305" rx="6.26527" fill="#EBEEF2" fill-opacity="0.4"/>
<g filter="url(#filter4_d)">
<rect x="369.545" y="124.598" width="186.914" height="146.19" rx="12.5305" fill="#FF686F" fill-opacity="0.75" shape-rendering="crispEdges"/>
</g>
<ellipse cx="388.568" cy="140.675" rx="5.7431" ry="5.74342" fill="#EBEEF2" fill-opacity="0.4"/>
<ellipse cx="406.572" cy="140.854" rx="5.7431" ry="5.74342" fill="#EBEEF2" fill-opacity="0.4"/>
<ellipse cx="424.576" cy="141.033" rx="5.7431" ry="5.74342" fill="#EBEEF2" fill-opacity="0.4"/>
<path fill-rule="evenodd" clip-rule="evenodd" d="M461.878 178.826C482.969 149.363 534.098 192.595 463.32 242.648C390.247 191.136 439.92 149.42 461.878 178.826Z" fill="#EBEEF2" fill-opacity="0.4"/>
<g filter="url(#filter5_d)">
<rect x="824.374" y="286.451" width="328.33" height="89.8021" rx="12.5305" fill="#3E87CD" fill-opacity="0.4" shape-rendering="crispEdges"/>
</g>
<rect x="837.208" y="297.937" width="68.4466" height="66.8295" rx="7.30948" fill="#EBEEF2" fill-opacity="0.4"/>
<rect x="918.488" y="305.247" width="53.2548" height="12.5305" rx="6.26527" fill="#EBEEF2" fill-opacity="0.4"/>
<rect x="978.008" y="305.247" width="74.139" height="12.5305" rx="6.26527" fill="#EBEEF2" fill-opacity="0.4"/>
<rect x="918.488" y="325.087" width="222.451" height="12.5305" rx="6.26527" fill="#EBEEF2" fill-opacity="0.4"/>
<rect x="918.488" y="344.927" width="222.451" height="12.5305" rx="6.26527" fill="#EBEEF2" fill-opacity="0.4"/>
<g filter="url(#filter6_d)">
<rect x="26" y="182.03" width="328.33" height="89.8021" rx="12.5305" fill="#3E87CD" fill-opacity="0.4" shape-rendering="crispEdges"/>
</g>
<rect x="38.8337" y="193.516" width="68.4466" height="66.8295" rx="7.30948" fill="#EBEEF2" fill-opacity="0.4"/>
<rect x="120.114" y="200.826" width="53.2548" height="12.5305" rx="6.26527" fill="#EBEEF2" fill-opacity="0.4"/>
<rect x="179.634" y="200.826" width="74.139" height="12.5305" rx="6.26527" fill="#EBEEF2" fill-opacity="0.4"/>
<rect x="120.114" y="220.666" width="222.451" height="12.5305" rx="6.26527" fill="#EBEEF2" fill-opacity="0.4"/>
<rect x="120.114" y="240.506" width="222.451" height="12.5305" rx="6.26527" fill="#EBEEF2" fill-opacity="0.4"/>
<g filter="url(#filter7_d)">
<rect x="909.403" y="182.03" width="328.33" height="89.8021" rx="12.5305" fill="#3E87CD" fill-opacity="0.4" shape-rendering="crispEdges"/>
</g>
<rect x="922.236" y="193.516" width="68.4466" height="66.8295" rx="7.30948" fill="#EBEEF2" fill-opacity="0.4"/>
<rect x="1003.52" y="200.826" width="53.2548" height="12.5305" rx="6.26527" fill="#EBEEF2" fill-opacity="0.4"/>
<rect x="1003.52" y="220.666" width="222.451" height="12.5305" rx="6.26527" fill="#EBEEF2" fill-opacity="0.4"/>
<rect x="1003.52" y="240.506" width="222.451" height="12.5305" rx="6.26527" fill="#EBEEF2" fill-opacity="0.4"/>
</g>
<defs>
<filter id="filter0_d" x="560.636" y="45.2385" width="344.59" height="234.947" filterUnits="userSpaceOnUse" color-interpolation-filters="sRGB">
<feFlood flood-opacity="0" result="BackgroundImageFix"/>
<feColorMatrix in="SourceAlpha" type="matrix" values="0 0 0 0 0 0 0 0 0 0 0 0 0 0 0 0 0 0 127 0" result="hardAlpha"/>
<feOffset/>
<feGaussianBlur stdDeviation="4.17684"/>
<feComposite in2="hardAlpha" operator="out"/>
<feColorMatrix type="matrix" values="0 0 0 0 0 0 0 0 0 0 0 0 0 0 0 0 0 0 0.12 0"/>
<feBlend mode="normal" in2="BackgroundImageFix" result="effect1_dropShadow"/>
<feBlend mode="normal" in="SourceGraphic" in2="effect1_dropShadow" result="shape"/>
</filter>
<filter id="filter1_d" x="131.263" y="278.841" width="344.59" height="234.947" filterUnits="userSpaceOnUse" color-interpolation-filters="sRGB">
<feFlood flood-opacity="0" result="BackgroundImageFix"/>
<feColorMatrix in="SourceAlpha" type="matrix" values="0 0 0 0 0 0 0 0 0 0 0 0 0 0 0 0 0 0 127 0" result="hardAlpha"/>
<feOffset/>
<feGaussianBlur stdDeviation="4.17684"/>
<feComposite in2="hardAlpha" operator="out"/>
<feColorMatrix type="matrix" values="0 0 0 0 0 0 0 0 0 0 0 0 0 0 0 0 0 0 0.12 0"/>
<feBlend mode="normal" in2="BackgroundImageFix" result="effect1_dropShadow"/>
<feBlend mode="normal" in="SourceGraphic" in2="effect1_dropShadow" result="shape"/>
</filter>
<filter id="filter2_d" x="816.818" y="383.563" width="344.59" height="234.947" filterUnits="userSpaceOnUse" color-interpolation-filters="sRGB">
<feFlood flood-opacity="0" result="BackgroundImageFix"/>
<feColorMatrix in="SourceAlpha" type="matrix" values="0 0 0 0 0 0 0 0 0 0 0 0 0 0 0 0 0 0 127 0" result="hardAlpha"/>
<feOffset/>
<feGaussianBlur stdDeviation="4.17684"/>
<feComposite in2="hardAlpha" operator="out"/>
<feColorMatrix type="matrix" values="0 0 0 0 0 0 0 0 0 0 0 0 0 0 0 0 0 0 0.12 0"/>
<feBlend mode="normal" in2="BackgroundImageFix" result="effect1_dropShadow"/>
<feBlend mode="normal" in="SourceGraphic" in2="effect1_dropShadow" result="shape"/>
</filter>
<filter id="filter3_d" x="473.142" y="278.097" width="344.59" height="234.947" filterUnits="userSpaceOnUse" color-interpolation-filters="sRGB">
<feFlood flood-opacity="0" result="BackgroundImageFix"/>
<feColorMatrix in="SourceAlpha" type="matrix" values="0 0 0 0 0 0 0 0 0 0 0 0 0 0 0 0 0 0 127 0" result="hardAlpha"/>
<feOffset/>
<feGaussianBlur stdDeviation="4.17684"/>
<feComposite in2="hardAlpha" operator="out"/>
<feColorMatrix type="matrix" values="0 0 0 0 0 0 0 0 0 0 0 0 0 0 0 0 0 0 0.12 0"/>
<feBlend mode="normal" in2="BackgroundImageFix" result="effect1_dropShadow"/>
<feBlend mode="normal" in="SourceGraphic" in2="effect1_dropShadow" result="shape"/>
</filter>
<filter id="filter4_d" x="361.192" y="116.245" width="203.621" height="162.897" filterUnits="userSpaceOnUse" color-interpolation-filters="sRGB">
<feFlood flood-opacity="0" result="BackgroundImageFix"/>
<feColorMatrix in="SourceAlpha" type="matrix" values="0 0 0 0 0 0 0 0 0 0 0 0 0 0 0 0 0 0 127 0" result="hardAlpha"/>
<feOffset/>
<feGaussianBlur stdDeviation="4.17684"/>
<feComposite in2="hardAlpha" operator="out"/>
<feColorMatrix type="matrix" values="0 0 0 0 0 0 0 0 0 0 0 0 0 0 0 0 0 0 0.12 0"/>
<feBlend mode="normal" in2="BackgroundImageFix" result="effect1_dropShadow"/>
<feBlend mode="normal" in="SourceGraphic" in2="effect1_dropShadow" result="shape"/>
</filter>
<filter id="filter5_d" x="816.02" y="278.097" width="345.037" height="106.51" filterUnits="userSpaceOnUse" color-interpolation-filters="sRGB">
<feFlood flood-opacity="0" result="BackgroundImageFix"/>
<feColorMatrix in="SourceAlpha" type="matrix" values="0 0 0 0 0 0 0 0 0 0 0 0 0 0 0 0 0 0 127 0" result="hardAlpha"/>
<feOffset/>
<feGaussianBlur stdDeviation="4.17684"/>
<feComposite in2="hardAlpha" operator="out"/>
<feColorMatrix type="matrix" values="0 0 0 0 0 0 0 0 0 0 0 0 0 0 0 0 0 0 0.12 0"/>
<feBlend mode="normal" in2="BackgroundImageFix" result="effect1_dropShadow"/>
<feBlend mode="normal" in="SourceGraphic" in2="effect1_dropShadow" result="shape"/>
</filter>
<filter id="filter6_d" x="17.6463" y="173.676" width="345.037" height="106.51" filterUnits="userSpaceOnUse" color-interpolation-filters="sRGB">
<feFlood flood-opacity="0" result="BackgroundImageFix"/>
<feColorMatrix in="SourceAlpha" type="matrix" values="0 0 0 0 0 0 0 0 0 0 0 0 0 0 0 0 0 0 127 0" result="hardAlpha"/>
<feOffset/>
<feGaussianBlur stdDeviation="4.17684"/>
<feComposite in2="hardAlpha" operator="out"/>
<feColorMatrix type="matrix" values="0 0 0 0 0 0 0 0 0 0 0 0 0 0 0 0 0 0 0.12 0"/>
<feBlend mode="normal" in2="BackgroundImageFix" result="effect1_dropShadow"/>
<feBlend mode="normal" in="SourceGraphic" in2="effect1_dropShadow" result="shape"/>
</filter>
<filter id="filter7_d" x="901.049" y="173.676" width="345.037" height="106.51" filterUnits="userSpaceOnUse" color-interpolation-filters="sRGB">
<feFlood flood-opacity="0" result="BackgroundImageFix"/>
<feColorMatrix in="SourceAlpha" type="matrix" values="0 0 0 0 0 0 0 0 0 0 0 0 0 0 0 0 0 0 127 0" result="hardAlpha"/>
<feOffset/>
<feGaussianBlur stdDeviation="4.17684"/>
<feComposite in2="hardAlpha" operator="out"/>
<feColorMatrix type="matrix" values="0 0 0 0 0 0 0 0 0 0 0 0 0 0 0 0 0 0 0.12 0"/>
<feBlend mode="normal" in2="BackgroundImageFix" result="effect1_dropShadow"/>
<feBlend mode="normal" in="SourceGraphic" in2="effect1_dropShadow" result="shape"/>
</filter>
<clipPath id="clip0">
<rect width="1038" height="439" fill="white"/>
</clipPath>
</defs>
</svg>
