<svg fill="none" height="100" viewBox="0 0 670 100" width="670" xmlns="http://www.w3.org/2000/svg"><path d="m0 16.6481v16.648h2.47486 2.47487v-14.1732-14.17315h14.17317 14.1732v-2.47487-2.47486093h-16.6481-16.648z" fill="#657788"/><path d="m100 83.3521v-16.6481h-2.4749-2.4748v14.1732 14.1732h-14.1732-14.1732v2.4748 2.4748h16.6481 16.648z" fill="#657788"/><path d="m83.5803 50.1813c0 18.5188-15.0394 33.5312-33.5913 33.5312s-33.5912-15.0124-33.5912-33.5312 15.0393-33.5313 33.5912-33.5313 33.5913 15.0125 33.5913 33.5313z" fill="#80d2c8"/><path clip-rule="evenodd" d="m47.1083 16.7716c-16.9264 1.4351-30.2746 15.3991-30.7001 32.5644-.0009.2018-.0015.4287-.0015.6797.001.4851.0022.8505.0045 1.1228.0068.2419.0161.4832.028.7238.0034.0061.0071.0056.0112 0 .0218-.0281.053-.0531.0686-.0531s.1217.0624.2371.1373c.1154.0748.2651.1466.3275.159.1684.0281.9108.2465 1.2414.3588 1.3631.4741 2.1148.9232 2.355 1.4129.1403.2901.1871.5116.2183 1.0637.053.8858.0749 1.0262.2059 1.2383.1403.2245.2869.2838.839.3399.496.05.7767.1466 1.6158.5646.9794.4866 1.2289.5646 1.9089.602 1.0542.0593 1.6562.1529 2.4766.3805 1.2133.34 2.0337.8048 2.3425 1.3226.0343.0561.0436.1684.0436.4055-.0031.2807-.0187.368-.1029.6176-.1934.5676-.4772 1.0917-1.2196 2.2551-.6581 1.0262-.7517 1.2976-1.0137 2.8665-.1747 1.0543-.3244 1.6188-.602 2.277-.3805.8983-.9326 1.5907-1.2695 1.5907-.496 0-1.4754.6831-1.9089 1.3319-.2152.3213-.2683.4461-.2246.5303.0218.0405.0499.0717.0655.0717.0125 0 .025.0156.025.0312 0 .0187.0311.0686.0717.1092.0374.0405.106.1185.1528.1778.0468.0561.1154.1372.1497.1778.0344.0436.0562.0967.0468.1185-.0062.0249 0 .0343.0156.0249.0406-.0249.3463.2995.3275.3494-.0062.0249.0063.0312.0375.0187.0405-.0156.0468-.0062.0312.0343-.0125.0312-.0094.0468.0093.0343s.053.0031.0811.0281c.025.0281.0406.0499.0312.0499-.0093 0 .0718.0936.184.209.1123.1185.1965.2308.1872.2526-.0094.025 0 .0312.0187.0188.0187-.0125.1684.1216.3431.3025.1716.1778.3244.3369.34.3556.0437.0405.2463.2432.2745.2713v.0001c.0065.0065.052.0503.1193.1151.0618.0594.1418.1365.2269.2186.1809.1747.315.3244.3026.3431-.0125.0187-.0063.0281.0187.0187.0218-.0093.1341.0749.2526.1872.1154.1123.209.1934.209.184 0-.0093.0219.0062.0499.0312.025.0281.0406.0624.0281.0811s.0031.0218.0343.0094c.0406-.0156.0499-.0094.0343.0311-.0125.0312-.0062.0437.0187.0375.0499-.0187.3743.2869.3494.3275-.0094.0156 0 .0218.0249.0156.0219-.0094.0749.0125.1186.0468.0405.0343.1216.1029.1777.1497.0593.0468.1373.1154.1778.1528.0406.0406.0843.0718.0936.0718.0094 0 .0499.028.0874.0655.0374.0374.1185.1029.1777.1466.0593.0468.1591.131.2184.184.0592.0561.1185.1029.1341.1029.0125 0 .0655.0437.1217.0936.053.053.1091.0936.1216.0936s.0593.0343.1029.078c.0437.0436.0936.0779.1123.0779.0156 0 .0312.0094.0312.0219 0 .0156.053.0592.1154.1029s.1466.1092.1841.1466c.0405.0406.0873.0717.106.0717.0156 0 .0312.0156.0312.0344 0 .0156.0125.0249.0281.0156.0124-.0094.0499.0093.0811.0436s.0748.0624.0998.0624c.0249 0 .0343.0125.0249.0312-.0093.0187.0032.0312.0281.0312.0281 0 .0499.0125.0499.0312 0 .0156.0218.0312.0468.0312s.078.0343.1216.078c.0437.0436.0936.0779.1123.0779.0156 0 .0312.0125.0312.0312 0 .0156.0219.0312.0468.0312.025 0 .0468.0094.0468.0218 0 .0156.0717.0655.156.1186.0873.0499.1559.1029.1559.1154s.0219.0249.0468.0249c.025 0 .0468.0125.0468.025 0 .0156.0561.053.1248.0873.0686.0312.1247.0686.1247.0811 0 .0156.0156.025.0312.025.0187 0 .0593.0249.0936.053.0312.0312.1123.0842.1778.1185s.1403.0842.1653.1092c.0249.025.106.0749.1778.1092.0748.0343.1341.0717.1341.0842 0 .0156.0218.0249.0468.0249s.0468.0125.0468.0312c0 .0156.0218.0312.0499.0312.0249 0 .0374.0125.0281.0312-.0094.0156.0031.0312.0312.0312.0249 0 .1029.0343.1715.078s.1373.078.156.078c.0156 0 .0312.0124.0312.0312 0 .0156.0218.0311.0467.0311.025 0 .0468.0094.0468.0219 0 .0156.0624.053.1404.0873s.1404.0718.1404.0842c0 .0156.0218.025.0467.025.025 0 .0468.0125.0468.0312 0 .0156.0219.0312.0468.0312.025 0 .0468.0124.0468.0312 0 .0156.0218.0312.0499.0312.0562 0 .2402.0966.2558.131.0062.0156.0312.0249.0561.0249.025 0 .0437.0094.0437.025 0 .0249.2277.131.2807.131.0187 0 .0312.0124.0312.0312 0 .0156.0218.0312.0468.0312.0249 0 .0468.0124.0468.0311 0 .0156.0281.0312.0624.0312s.0624.0125.0624.0312c0 .0156.0218.0312.0467.0312.025 0 .0468.0125.0468.0312 0 .0156.0219.0312.0468.0312.053 0 .3681.1591.3837.1934.0062.0156.0374.0249.0717.0249.0312 0 .0593.0156.0593.0344 0 .0155.0124.0249.0249.0155.0156-.0093.0718.0125.1248.0468.0561.0312.1216.0593.1466.0593.0249 0 .0468.0125.0468.0312 0 .0156.0312.0312.0686.0312s.0561.0093.0468.0218c-.0218.0187.1372.0905.2838.1248.0375.0093.0687.0281.0687.0437 0 .0155.028.028.0623.028s.0624.0125.0624.0312c0 .0156.0281.0312.0624.0312s.0624.0125.0624.0312c0 .0156.0218.0312.0468.0312.0249 0 .1185.0343.209.078.0873.0436.1809.0779.2027.0779.025 0 .0343.0125.025.0312-.0125.0188.0155.0312.0592.0312s.0811.0125.0811.0312c0 .0156.0218.0312.0499.0312.0468 0 .2059.0624.3307.1279.0311.0156.0779.0281.1029.0281.0249 0 .0468.0124.0468.0312 0 .0156.0374.0312.0811.0312.0436 0 .0717.0124.0592.0311-.0093.0188.0125.0312.0531.0312.0405 0 .1122.0219.1622.0468.0467.025.1154.0468.1466.0468.0343 0 .0592.0125.0592.0312 0 .0156.0374.0312.0811.0312s.0718.0125.0593.0312.0156.0312.0592.0312c.0437 0 .0811.0125.0811.028 0 .0156.0562.0344.1248.0468.0717.0094.156.0343.1872.0499.0171.0094.0397.0203.0623.0312.0227.011.0453.0219.0624.0312.0343.0156.0905.0312.1248.0312.0374 0 .0561.0125.0468.0312-.0125.0187.0218.0312.0748.0312.0531 0 .0967.0125.0967.0281s.0624.0374.1404.0468c.0749.0124.1466.0343.1559.053.0125.0156.0531.0281.0967.0281.0406 0 .0749.0124.0749.0312 0 .0155.0437.0311.0936.0311.053 0 .0936.0125.0936.0312 0 .0156.0436.0312.0935.0312.0531 0 .0936.0125.0936.0281s.0717.0374.156.0499c.0873.0125.1559.0343.1559.0499s.0437.0281.0936.0281c.053 0 .0936.0125.0936.0312 0 .0156.0499.0312.1123.0312.0655 0 .1029.0124.0904.0312-.0125.0187.0218.0312.0842.0312.0562.0031.1591.0218.2277.0467.0686.025.156.0468.1965.0468.0375 0 .0687.0125.0687.0312 0 .0156.0499.0312.1091.0312.0593 0 .1092.0125.1092.0312 0 .0156.0499.0312.1123.0312.0592 0 .1029.0125.0936.0281-.0094.0156.0717.0374.184.0499.1123.0093.209.0343.2183.0499.0125.0156.0655.028.1248.028s.1154.0125.1248.0312c.0093.0156.0686.0312.1278.0312.0593 0 .1061.0125.1061.0312 0 .0156.0561.0312.1248.0312.0686 0 .1247.0125.1247.0281s.1123.0374.2496.0499c.1372.0125.2495.0343.2495.0499s.0624.0281.1404.0281c.0779 0 .1403.0124.1403.0312 0 .0156.0624.0312.1404.0312s.1403.0124.1403.0311c0 .0156.0718.0312.1591.0312.0842 0 .1497.0125.1404.0281-.0094.0156.1279.0374.3088.0499s.3368.0343.3462.0499.0842.0281.1716.0281c.0842 0 .1528.0125.1528.0312s.0873.0312.2027.0312.2028.0125.2028.0312.0873.0312.2027.0312c.1123 0 .2028.0124.2028.028s.2183.0375.4834.0499c.2652.0125.4929.0343.5022.0499.0094.0156.156.0281.3275.0281.1841 0 .3088.0125.3088.0312s.1685.0312.4461.0312c.2963 0 .4273.0094.3961.0312-.0312.0187.6114.0312 1.8403.0312 1.229 0 1.8715-.0125 1.8403-.0312-.0312-.0218.0998-.0312.3993-.0312.2744 0 .4429-.0125.4429-.0312s.1247-.0312.3088-.0312c.1715 0 .3181-.0125.3275-.0281.0093-.0156.237-.0374.5022-.0499.2651-.0124.4834-.0343.4834-.0499s.0905-.028.2028-.028c.1154 0 .2027-.0125.2027-.0312s.0874-.0312.2028-.0312.2027-.0125.2027-.0312.0686-.0312.1528-.0312c.0874 0 .1622-.0125.1716-.0281s.1653-.0374.3462-.0499.3182-.0343.3088-.0499c-.0093-.0156.0562-.0281.1404-.0281.0873 0 .1591-.0156.1591-.0312 0-.0187.0623-.0311.1403-.0311s.1404-.0156.1404-.0312c0-.0188.0624-.0312.1403-.0312.078 0 .1404-.0125.1404-.0281s.1123-.0374.2495-.0499c.1373-.0125.2496-.0343.2496-.0499s.0655-.0281.1435-.0281c.0842 0 .1341-.0125.1216-.0312s.025-.0312.0905-.0312c.0592 0 .1185-.0156.1278-.0312.0094-.0187.0655-.0312.1248-.0312s.1123-.0124.1248-.028c.0093-.0156.106-.0406.2183-.0499.1123-.0125.1934-.0343.184-.0499-.0093-.0156.0344-.0281.0936-.0281.0624 0 .1123-.0156.1123-.0312 0-.0187.0499-.0312.1092-.0312.0592 0 .1091-.0156.1091-.0312 0-.0187.0312-.0312.0718-.0312.0374 0 .1248-.0218.1934-.0468.0686-.0249.1715-.0436.2277-.0467.0624 0 .0967-.0125.0842-.0312-.0125-.0188.0249-.0312.0904-.0312.0624 0 .1123-.0156.1123-.0312 0-.0187.0437-.0312.0936-.0312.053 0 .0936-.0125.0936-.0281 0-.0218.1185-.053.2869-.078.0094-.0031.0312-.0124.0437-.0249.0125-.0156.0562-.025.0967-.025.0406 0 .0718-.0156.0718-.0312 0-.0187.0436-.0312.0935-.0312.053 0 .0936-.0156.0936-.0311 0-.0188.0343-.0312.0749-.0312.0436 0 .0842-.0125.0967-.0281.0093-.0187.0811-.0406.1559-.053.078-.0094.1404-.0312.1404-.0468s.0436-.0281.0967-.0281c.053 0 .0873-.0125.0748-.0312s.0219-.0312.0749-.0312.0967-.0156.0967-.0312c0-.0187.028-.0312.0592-.0312.0344 0 .0687-.0124.0811-.028.0094-.0188.0811-.0406.156-.0531.078-.0093.1404-.0312.1404-.0468 0-.0155.0374-.028.0811-.028.0436 0 .0717-.0125.0592-.0312s.0156-.0312.0593-.0312.0811-.0156.0811-.0312c0-.0187.0249-.0312.0592-.0312.0312 0 .0999-.0218.1466-.0468.05-.0249.1217-.0468.1622-.0468.0406 0 .0624-.0124.0531-.0312-.0125-.0187.0156-.0311.0592-.0311.0437 0 .0811-.0156.0811-.0312 0-.0188.0219-.0312.0468-.0312.025 0 .0718-.0125.1029-.0281.1248-.0655.2839-.1279.3307-.1279.028 0 .0499-.0156.0499-.0312 0-.0187.0343-.0312.0748-.0312.0406 0 .0811-.0124.0874-.0249.0156-.0375.3618-.1934.4304-.1934.0343 0 .0624-.0156.0624-.0312 0-.0187.0281-.0312.0655-.0312.0343 0 .053-.0125.0437-.0312-.0094-.0187.0093-.0312.0436-.0312.0375 0 .0655-.0125.0655-.028 0-.0156.0312-.0344.0718-.0437.1435-.0343.3025-.1061.2807-.1248-.0093-.0125.0094-.0218.0468-.0218s.0686-.0156.0686-.0312c0-.0187.0219-.0312.0468-.0312.025 0 .0905-.0281.1466-.0593.053-.0343.1092-.0561.1248-.0468.0124.0094.0249 0 .0249-.0155 0-.0188.0281-.0344.0593-.0344.0343 0 .0655-.0093.0717-.0249.0156-.0343.3307-.1934.3837-.1934.0249 0 .0468-.0156.0468-.0312 0-.0187.0218-.0312.0468-.0312.0249 0 .0467-.0156.0467-.0312 0-.0187.0281-.0312.0624-.0312s.0624-.0156.0624-.0312c0-.0187.0219-.0311.0468-.0311.025 0 .0468-.0125.0468-.0281s.0405-.0374.0936-.0499c.0499-.0125.0998-.0343.1091-.0499.0125-.0156.0468-.0281.0811-.0281s.0531-.0125.0437-.0312c-.0094-.0156.0031-.0312.0281-.0312.028 0 .0499-.0125.0499-.0249 0-.0125.0717-.0499.1559-.0843.0874-.0343.156-.0717.156-.0842s.0281-.0249.0655-.0249c.0343 0 .053-.0156.0437-.0312-.0094-.0187.0031-.0312.028-.0312.0281 0 .0499-.0094.0499-.025 0-.0124.0624-.0499.1404-.0842s.1404-.0717.1404-.0873c0-.0125.0218-.0219.0468-.0219.0249 0 .0467-.0155.0467-.0311 0-.0188.0281-.0312.0624-.0312s.0624-.0094.0624-.025c0-.0281.1778-.131.2308-.131.0187 0 .0562-.0281.0811-.0624.025-.0343.0624-.0624.0842-.0624.0219 0 .0406-.0124.0406-.028 0-.025.1154-.0749.1653-.0687.0125.0032.0218-.0124.0218-.028 0-.0187.0156-.0312.0344-.0312.0218 0 .0592-.025.0873-.0562.0281-.028.106-.0811.1747-.1154.0686-.0343.1466-.0873.1746-.1185.0281-.0281.0655-.053.0874-.053.0187 0 .0343-.0094.0343-.025 0-.0125.0561-.0499.1247-.0811.0687-.0343.1248-.0717.1248-.0873 0-.0125.0156-.025.0312-.025.0187 0 .0624-.0249.0967-.0592.0343-.0312.1154-.0842.1778-.1154.0624-.0343.1372-.0843.1653-.1154.0281-.0281.0624-.0531.078-.0531s.0499-.028.0748-.0592c.0219-.0343.0531-.0562.0687-.0468.0124.0093.0249 0 .0249-.0156 0-.0187.0218-.0343.0468-.0343s.0468-.0156.0468-.0312c0-.0187.0218-.0312.0499-.0312.0249 0 .0374-.0156.0281-.0312-.0094-.0187 0-.0312.0249-.0312.0219 0 .0718-.0281.1061-.0593.0374-.0343.0748-.053.0842-.0436.0093.0125.0187.0031.0187-.0156 0-.0219.0156-.0375.0312-.0375.0187 0 .0749-.0405.131-.0935.053-.0499.1092-.0936.1216-.0936.0125 0 .0593-.0343.103-.078.0436-.0436.0873-.078.0967-.078.0093 0 .053-.0343.0967-.0779.0436-.0437.0904-.078.1029-.078s.0686-.0437.1216-.0936c.0562-.053.1092-.0936.1217-.0936.0156 0 .0873-.0561.1591-.1247.0748-.0687.1466-.1248.1559-.1248.0125 0 .0811-.0561.156-.1248.0717-.0686.1372-.1247.1466-.1247.0093 0 .053-.0312.0936-.0718.0405-.0374.1185-.106.1778-.1528.0561-.0468.1372-.1154.1777-.1497.0437-.0343.0967-.0562.1186-.0468.0249.0062.0343 0 .0249-.0156-.0218-.0374.2901-.3306.3462-.3244.0219.0031.0312-.0156.0188-.0437-.0125-.0343-.0032-.0436.0374-.028.0312.0124.0468.0093.0343-.0094-.0218-.0374.0624-.131.0905-.1029.0093.0124.0187.0031.0187-.0156 0-.0219.0156-.0375.0343-.0375s.0904-.0623.1622-.1403c.0686-.078.1435-.1373.1653-.1279.0281.0094.0343 0 .0218-.0343-.0156-.0374-.0062-.0468.0312-.0312.0375.0125.0437.0062.0312-.0312-.0156-.0405-.0062-.0468.0343-.0312.0343.0125.0468.0094.0312-.0125-.0156-.0249.34-.3961.5864-.6082.0218-.0187.0624-.0655.0874-.0998.0311-.0499.0499-.0562.0686-.0281.0156.025.0249.0125.0249-.0343 0-.0405.0125-.0655.025-.0561.0156.0093.0468-.0125.0717-.0499.0842-.1217.2059-.2402.2277-.2215.0094.0093.0187.0031.0187-.0187 0-.0593.3338-.3868.3712-.365.0218.0156.025.0032.0125-.0312-.0156-.0405-.0094-.0499.0312-.0343.0374.0125.0436.0063.0312-.0312-.0156-.0374-.0063-.0467.0312-.0311.0343.0124.0436.0062.0343-.0219-.0094-.0249.0187-.0717.0624-.106.0436-.0343.0811-.078.0811-.0998 0-.0188.0155-.025.0311-.0156.0188.0093.0312.0031.0312-.0188 0-.0187.0312-.0623.0687-.0935.0343-.0343.0561-.0593.0436-.0593-.0124 0 0-.0218.025-.0499.0281-.025.0624-.0406.0811-.0281s.0218-.0031.0093-.0343c-.0156-.0437-.0093-.0499.0343-.0343.0344.0125.0468.0094.0344-.0125-.0125-.0156.0156-.0655.0592-.106.0437-.0406.0811-.0905.0811-.1092s.0156-.0249.0312-.0156c.0187.0094.0312.0031.0312-.0156 0-.053.0873-.131.1248-.1092.0156.0094.0218 0 .0124-.0249-.0093-.025.0188-.0811.0624-.1248.0437-.0468.0811-.0904.0811-.0998 0-.0093.0312-.0499.0718-.0904.0374-.0406.0873-.103.1123-.1373.0249-.0374.0561-.0593.0717-.0499.0125.0094.025-.0156.025-.0561 0-.0562.0062-.0624.0311-.025.025.0406.0312.0374.0312-.0125 0-.0312.0343-.0904.078-.131.0437-.0405.078-.0873.078-.106s.0156-.025.0312-.0156c.0187.0093.0312-.0094.0312-.0468s.0156-.0561.0312-.0468c.0187.0094.0312-.0031.0312-.0281 0-.0249.0343-.0717.0779-.106.0437-.0343.078-.0842.078-.1154 0-.0281.0156-.0406.0312-.0312.0187.0093.0312-.0031.0312-.0343 0-.0406.0094-.0437.0437-.0156.0374.0312.0405.0249.028-.025-.0093-.0436 0-.0717.0343-.0842.0281-.0093.05-.0405.05-.0655 0-.0561.0779-.1372.106-.1123.0094.0125.0187-.0125.0187-.0499s.0125-.0593.0312-.0499.0312.0031.0312-.0156c0-.053.1123-.1903.1372-.1653.0094.0093.0188-.0062.0188-.0406 0-.0343.028-.0811.0623-.106.0344-.025.0624-.0624.0624-.0842 0-.0219.0156-.0406.0343-.0406.0156 0 .025-.0124.0156-.0249-.0093-.0156.0125-.0468.0468-.0687.0312-.0249.0593-.0717.0593-.1029s.0156-.0468.0312-.0374c.0187.0093.0312-.0031.0312-.0343 0-.0406.0093-.0437.0436-.0156s.0375.0218.0281-.0406c-.0093-.0499.0094-.0967.0655-.1528.0437-.0437.0811-.0967.0811-.1154 0-.0156.0156-.0312.0312-.0312.0187 0 .0312-.0218.0312-.0499 0-.025.0125-.0406.0281-.0312s.0374-.0156.0467-.0593c.0125-.0436.0344-.0779.05-.0779.0187 0 .0311-.0219.0311-.05 0-.0249.0156-.0374.0312-.028.0188.0093.0312-.0094.0312-.0437 0-.0374.0156-.0655.0312-.0655.0187 0 .0312-.0218.0312-.0499 0-.025.0125-.0405.0281-.0312.0156.0094.0374-.0156.0468-.0593.0125-.0436.0343-.0779.0499-.0779.0187 0 .0312-.0281.0312-.0655 0-.0343.0156-.0531.0312-.0437.0187.0094.0312-.0125.0312-.053 0-.0562.0062-.0624.0312-.025.0249.0374.0311.0343.0311-.0187 0-.0374.0219-.0842.0468-.106.025-.0219.0468-.0593.0468-.0843 0-.028.0187-.0405.0406-.0312.0311.0125.0405-.0062.0312-.0655-.0125-.0655-.0063-.0748.0187-.0374.028.0374.0343.0343.0343-.0249 0-.0375.0125-.0687.0281-.0687.0155 0 .0374-.0343.0467-.0779.0125-.0437.0344-.078.0499-.078.0188 0 .0312-.0281.0312-.0624s.0156-.0624.0312-.0624c.0187 0 .0312-.0218.0312-.0499 0-.0249.0156-.0374.0312-.0281.0187.0094.0312-.0093.0312-.0468 0-.0374.0156-.0561.0312-.0467.0187.0093.0312-.0094.0312-.0468 0-.0343.0218-.0718.0468-.0811.0249-.0125.0468-.0468.0468-.078s.0156-.0593.0312-.0593c.0187 0 .0311-.028.0311-.0655 0-.0343.0156-.053.0312-.0436.0188.0093.0312-.0094.0312-.0468 0-.0375.0156-.0562.0312-.0468.0187.0093.0312-.0094.0312-.0437s.0218-.0811.0468-.1092c.025-.0249.0468-.0717.0468-.1029 0-.0468.0062-.0499.0312-.0093.0249.0374.0312.028.0312-.0406 0-.0499.0124-.0811.0312-.0686.0187.0093.0312-.0094.0312-.0437 0-.0374.0155-.0655.0311-.0655.0188 0 .0312-.0281.0312-.0592 0-.0344.0219-.0811.0468-.1092.025-.025.0468-.0686.0468-.0967s.0156-.0406.0312-.0312c.0187.0094.0312-.0094.0312-.0468s.0156-.0561.0312-.0468c.0187.0094.0312-.0093.0312-.0436 0-.0375.0124-.0655.028-.0655s.0375-.05.0468-.1092c.0125-.0593.0343-.1092.0499-.1092.0188 0 .0312-.0218.0312-.0468 0-.0249.0156-.0468.0312-.0468.0187 0 .0312-.028.0312-.0655 0-.0343.0156-.053.0312-.0436.0187.0093.0312-.0032.0312-.0312 0-.0281.0218-.0718.0468-.0967.0249-.0281.0468-.0749.0468-.1092 0-.0312.0156-.0593.0312-.0593.0187 0 .0312-.028.0312-.0623s.0156-.0624.0311-.0624c.0188 0 .0312-.0281.0312-.0655 0-.0343.0156-.053.0312-.0437.0187.0125.0312-.0156.0312-.0593 0-.0436.0156-.0811.0343-.0811.0156 0 .0219-.0124.0125-.0311-.0093-.0188-.0031-.0312.0125-.0312.0187 0 .0343-.0281.0343-.0624s.0156-.0624.0312-.0624c.0187 0 .0312-.0374.0312-.0873 0-.0655.0062-.0749.0312-.0375.0218.0343.0312.0187.0312-.0623 0-.0811.0093-.0967.0312-.0624.0249.0374.0311.028.0311-.0375 0-.0467.0219-.1029.0468-.131.0281-.0249.0499-.0561.0468-.0655-.0062-.0967.0063-.1403.0312-.1247.0187.0124.0312-.0156.0312-.0624s.0125-.0749.0312-.0624.0312-.0156.0312-.0624.0125-.0748.0312-.0624c.0187.0094.0312-.0156.0312-.0592 0-.0406.0218-.0967.0467-.1248.025-.0249.0468-.0749.0468-.1092 0-.0374.0156-.0655.0312-.0655.0188 0 .0312-.0374.0312-.0811 0-.0436.0125-.0717.0312-.0592.0187.0124.0312-.0156.0312-.0624 0-.0437.0125-.0749.0281-.0655.0156.0093.0343-.0374.0468-.1061.0093-.0686.0343-.1247.0499-.1247.0187 0 .0312-.0375.0312-.0811 0-.0437.0124-.0718.0312-.0593.0187.0125.0311-.0218.0311-.078 0-.0561.0125-.0904.0312-.078.0188.0125.0312-.0218.0312-.0779 0-.0531.0125-.0905.0281-.0811.0156.0093.0343-.0375.0468-.1061.0093-.0686.0343-.1247.0499-.1247.0187 0 .0312-.0437.0312-.0967 0-.0531.0125-.0874.0312-.0749s.0312-.0218.0312-.0842c0-.078.0093-.0905.0312-.0562.0101.0159.0175.0218.0226.0158.0016-.0044.0033-.0088.005-.0132.0024-.012.0036-.0313.0036-.0587 0-.053.0124-.0998.028-.0998.0187 0 .0406-.0624.0531-.1404.0093-.078.0311-.131.0467-.1216.0156.0093.0281-.0281.0281-.078 0-.053.0156-.0967.0312-.0967.0187 0 .0312-.0437.0312-.0967s.0125-.0873.0312-.0749c.0187.0125.0312-.0187.0312-.0748 0-.0499.0156-.0967.0343-.1029.0156-.0063.0405-.0687.0499-.1435.0094-.0718.0281-.1217.0437-.1123.0156.0093.028-.0343.028-.0967 0-.0686.0125-.1061.0312-.0936s.0312-.0249.0312-.0904c0-.0624.0156-.1123.0312-.1123.0187 0 .0312-.0406.0312-.0905s.0156-.0967.0343-.1029c.0187-.0063.0406-.078.0499-.1591.0094-.0811.0312-.1466.0437-.1466.0156 0 .0281-.0437.0281-.0967s.0124-.0873.0311-.0748c.0188.0124.0313-.0344.0313-.1155 0-.0842.0093-.1185.028-.0935.0156.028.0312-.025.0437-.1404.0093-.0998.0343-.184.053-.1903.0156-.0062.0312-.0686.0312-.1341 0-.0748.0125-.1185.0312-.106.0187.0124.0312-.0343.0312-.1154 0-.0967.0093-.1217.0312-.0874.0039.0062.0074.0102.0106.0121.0066-.025.0133-.05.0199-.075.0004-.0136.0007-.0289.0007-.0462 0-.0967.0093-.1404.028-.1155.0041.0074.0084.0083.0128.0031.0081-.0313.0162-.0627.0243-.0941.0035-.0246.0068-.0536.0097-.0868.0125-.1216.0343-.2214.0531-.2214.0155 0 .028-.0562.028-.1248s.0156-.1247.0312-.1247c.0187 0 .0312-.0562.0312-.1279 0-.0749.0125-.1186.0312-.1061.0027.0018.0052.0023.0076.0016.0078-.0338.0155-.0676.0232-.1015.0003-.0079.0004-.0162.0004-.0248 0-.078.0125-.1373.0281-.1279.002.0012.0041.0003.0063-.0024.0113-.0507.0224-.1015.0335-.1523.0037-.0299.0071-.0629.0101-.098.0156-.1746.0312-.2526.0499-.2246.0024.0037.0047.006.0068.0071.0069-.0334.0138-.0669.0206-.1003.0004-.0151.0007-.0319.0007-.0502 0-.131.0093-.1747.0311-.1404.0018.0028.0035.0051.0051.0068.0088-.0444.0175-.089.0261-.1335 0-.0024 0-.0049 0-.0074 0-.1123.0125-.1747.0312-.1622.0004.0002.0007.0004.0011.0006.0102-.0541.0202-.1082.0301-.1624.0005-.0931.0126-.1614.0278-.1534.0203-.114.04-.2282.0592-.3425.0041-.0603.0066-.1218.0066-.1783 0-.0717.0125-.1122.0312-.0998.0026.0018.0051.002.0074.0008.008-.0501.0158-.1002.0235-.1503.0002-.0091.0003-.0185.0003-.0283 0-.1292.0083-.1782.0275-.1549.0121-.0815.0239-.163.0354-.2447.0022-.103.011-.1628.0237-.1713.049-.3612.0923-.7241.1297-1.0888.0074-.1052.0159-.1897.0235-.2376.0149-.1561.0287-.3124.0414-.4691.0016-.1252.007-.1959.0169-.2159.0625-.8361.0944-1.6808.0944-2.5328 0-6.139-1.6527-11.8926-4.5382-16.8418-.0148.0159-.0312.0339-.0496.0543-.0967.1091-.2339.2245-.3181.2651-.1373.0655-.1903.0748-.5864.0717-.4648 0-.5646-.0156-1.4785-.2495-.7985-.2059-1.1666-.2651-1.6251-.2651-.3712 0-.4492.0093-.6519.0779-.3587.1217-.5833.3369-.7236.6956-.0624.1622-.0718.2371-.0718.68-.0031.3681.0125.5739.0562.7798.0717.3587.2464.9763.3088 1.0948.0811.1591.3056.3525.4897.4211.2183.0842.6987.0904.9981.0156.4554-.1154 1.0137-.3899 1.2664-.6176.1902-.1747.3212-.2215.5583-.1934.6831.0842 1.4504.5084 2.1241 1.1822.3712.3711.5615.6082.7985.995.2309.3836.2808.5427.2683.8765-.0094.2464-.0218.3056-.1123.4803-.2433.4679-.6082.8141-1.6875 1.5939-1.7904 1.2944-2.5171 1.99-3.0942 2.9569-.2869.4835-.4335.6831-.6581.8984-.2277.2183-.3712.3119-.6332.421-.1622.0655-.237.0749-.5614.0749-.4866 0-.7018-.0655-1.3569-.4055-.237-.1248-.8421-.5458-1.1665-.811-.1529-.1247-.995-.8359-1.1416-.9607-.0437-.0374-.1466-.1247-.234-.1933-.6363-.5022-1.3256-1.2259-1.8902-1.9807-.5614-.7548-.6456-.8765-1.3693-1.9651-.4835-.7236-.7735-1.1478-1.1385-1.6531-.0326-.0446-.1304-.1881-.2258-.3283l-.0144-.0211c-.3992-.602-.6394-.8328-.8608-.8359-.209 0-.5147.2339-.5708.446-.0624.2371.0655.8017.3462 1.5003.2807.705.4679 1.1073 1.1478 2.4517.3151.627.5864 1.151.5989 1.1697.0125.0156.1185.2121.2339.4367.0545.1045.1167.2224.1737.3304.0637.1207.1209.2292.1539.2934.3555.6644.7735 1.4847.8889 1.7467.3026.6862.4398.8391 1.0512 1.1822.5084.2838 1.5034.5458 2.5046.6581.7206.0811 1.0824.1809 1.5347.4273.6955.3806 1.0386.9015 1.0449 1.5846 0 .2776-.053.4647-.2184.7766-.106.2028-.446.7081-.5583.8297-.0312.0343-.1247.1466-.209.2496-.0842.1029-.4491.4866-.811.8515-.5458.5521-.8671.8609-1.7529 1.675-.0077.0064-.0344.0308-.0732.0661-.0554.0506-.1355.1237-.22.199-.0844.0753-.1645.1483-.22.1989-.0388.0354-.0655.0598-.0732.0662-.0073.0074-.0525.0487-.1228.1131-.1093.1-.2795.2558-.4636.4265-.8047.7393-1.0044.9763-1.1042 1.3163-.0593.2028-.0686 1.1759-.0125 1.6002.0187.1403.0468.368.0624.5053.0312.262.1404 1.0293.1872 1.3256.1996 1.2445.2807 1.8652.2807 2.1772 0 .3774-.0468.5021-.3369.8858-.2402.315-.4367.5147-1.0667 1.0948-.6956.6363-1.4567 1.3974-1.5846 1.5877-.1965.2869-.2526.4367-.2869.761-.0437.3868-.156.8297-.2807 1.1198-.0156.0343-.0718.1685-.1248.2963-.0998.2309-.4336.9108-.5521 1.1229-.5958 1.0481-1.8029 2.826-2.5515 3.7586-.7642.9482-1.2601 1.3257-2.0461 1.5534-.6675.1933-.942.2214-2.1491.2245h-1.0449l-.1841-.0935c-.3805-.1934-.6238-.6176-.7985-1.3912-.0936-.4211-.1154-.5209-.1528-.7143-.006-.0278-.014-.0652-.0235-.1091-.0444-.207-.1205-.561-.1668-.7642-.0073-.0279-.0202-.0799-.0356-.1425-.0174-.0704-.0381-.1542-.058-.2318-.0686-.2714-.1965-.7985-.3119-1.2945-.2713-1.1509-.4834-1.8777-.7486-2.539-.2589-.655-.5146-1.0886-.8889-1.5159-.4554-.5178-.5771-.7766-.7393-1.5596-.0499-.2495-.0499-1.5564 0-1.965l.0034-.0258c.0378-.2877.0493-.3753.1432-.9723.0143-.0904.0244-.1552.0353-.2198.0298-.1764.0648-.3519.2018-1.0435.1684-.8547.2121-1.1697.2152-1.5627 0-.4741-.0967-1.1104-.2526-1.6812-.1154-.4055-.4242-1.3069-.5459-1.5846-.0281-.0623-.0624-.1434-.0748-.1777-.025-.0624-.4679-1.1261-.5521-1.3257-.1872-.4398-.4336-.8827-.6114-1.0917-.3462-.4117-.864-.7392-1.3818-.8702-.7642-.1965-1.5845-.1685-2.9133.0935-.0779.0156-.2807.0406-.4522.0593-.2261.0201-.4441.0443-1.0076.1067-.1362.015-.2925.0324-.474.0524-1.9152.2121-3.6307.2932-4.5602.2183-.9264-.0748-1.0855-.1372-1.8965-.7299-.9513-.6986-1.335-1.3474-1.572-2.6575-.0998-.5489-.1279-1.0075-.1279-2.0586 0-1.1572.0436-1.7904.1747-2.5577.1216-.7081.3711-1.6345.5988-2.2458.0183-.0446.0483-.1286.08-.2171.0171-.0478.0346-.0968.051-.1416.015-.041.03-.0827.044-.1215.0296-.0822.0546-.1515.0652-.1748.0281-.0655.4304-1.1292.5303-1.4036.1029-.2745.2713-.7705.3867-1.1261.4523-1.4067 1.1105-2.1927 2.5765-3.0754.1278-.078.5708-.3276.9825-.5552.4117-.2277.8078-.4554.8796-.5053.0717-.0468.1372-.0874.1497-.0874.0343 0 .3587-.2152.9669-.6394.68-.4741 1.0075-.655 1.4567-.8048.8297-.2776 1.544-.3088 2.723-.1185.2183.0343 1.1291.209 1.3101.2527.1278.028.3462.0686.6893.1247.1029.0188.4959.0531.8733.078.3775.025.7674.0655.8641.0905.2994.0779.6082.262.8515.5022.2807.2744.4023.4647.7891 1.2258.5272 1.0293.6675 1.1541 1.4691 1.3007.7424.1372.9826.1185 1.6563-.1154l.4804-.1654.421.0032c.2527.0031.6052.0312.889.0717 1.2102.1809 1.6438.2215 2.3144.2215 1.5378 0 2.7137-.418 3.7399-1.3319.577-.5147 1.1821-1.282 1.4098-1.7873.1716-.3805.209-.5458.2059-.9513-.0031-.3275-.0125-.4024-.0873-.6051-.2153-.5709-.4897-.9389-1.5378-2.0306-.8047-.8391-.9544-.9981-1.1478-1.2321-.2932-.3524-.3431-.4055-.6083-.6737-.3306-.3338-.4741-.4149-.7486-.418-.2682 0-.3493.0437-.8172.4429-.6644.5677-.9388.7237-1.5408.8796-.1903.0499-.9545.0437-1.229-.0124-.5926-.1186-1.0075-.2558-1.7155-.5677-.9108-.4055-1.1447-.4991-1.7467-.6956-.7923-.2589-1.0512-.3119-1.5409-.3119-.8047 0-1.126.2214-1.9619 1.3412-.9607 1.2913-1.4505 1.7561-2.2739 2.1709-1.0293.5178-2.252.8079-3.7243.8859-.8733.0468-1.9432-.0156-2.4766-.1404-.0309-.0088-.0886-.0224-.1473-.0362-.0241-.0056-.0483-.0114-.071-.0168-.2496-.0593-.6051-.184-.786-.2807-.7174-.3806-.8017-1.1853-.2433-2.3331.1902-.3931.4647-.7767.8265-1.1479.5646-.5864 1.098-.8796 1.5939-.8796.1529 0 .4991-.0593.6894-.1185.2464-.078.5021-.2464.761-.5053.2277-.2246.2901-.3119.4118-.5615.2277-.471.2744-.6799.2932-1.2788.0124-.4429.0031-.5646-.0562-.8734-.156-.811-.0936-1.5564.2246-2.6669.0022-.0076.0052-.0177.0088-.0297.0211-.0716.063-.2138.1004-.3446.1684-.5864.4772-1.4753.8078-2.3393.0436-.1118.0851-.2195.1183-.3059z" fill="#0069ca" fill-rule="evenodd"/><path d="m149.056 40.872c-4.416 0-8.064 1.792-10.176 4.864v-17.344h-5.504v44.608h5.504v-13.888c0-8.832 3.008-13.376 8.704-13.376 4.48 0 6.528 2.816 6.528 8.96v18.304h5.504v-19.648c0-8.128-3.712-12.48-10.56-12.48zm31.962 0c-5.504 0-9.792 2.112-13.312 6.592l3.968 3.328c2.496-3.328 5.504-5.056 9.216-5.056 4.8 0 7.488 2.688 7.488 7.552v1.28h-6.976c-5.312 0-8.448.512-10.816 1.792-2.56 1.408-3.968 3.968-3.968 7.296 0 6.08 4.288 9.92 11.072 9.92 4.736 0 8.512-1.92 10.752-5.312l.384 4.736h5.056v-19.712c0-7.808-4.8-12.416-12.864-12.416zm-2.048 28.096c-4.224 0-6.848-1.984-6.848-5.056 0-1.6.576-2.816 1.6-3.648 1.344-1.024 3.52-1.408 8.32-1.408h6.336v.32c0 5.824-3.84 9.792-9.408 9.792zm36.687 4.608c5.888 0 10.56-3.2 12.672-8.96l-5.056-1.92c-1.088 3.776-3.968 6.016-7.68 6.016-6.272 0-8.96-5.44-8.96-11.392s2.688-11.584 8.96-11.584c3.648 0 6.528 2.304 7.808 6.144l5.248-2.112c-2.496-6.016-7.232-8.896-13.056-8.896-9.792 0-14.592 8.128-14.592 16.448 0 8.64 5.12 16.256 14.656 16.256zm20.219-.576h5.504v-9.28l6.464-6.912 10.432 16.192h6.528l-13.184-19.584 11.52-11.968h-7.36l-14.4 15.424v-28.48h-5.504zm57.978-15.872v-28.736h-4.992l-22.4 30.592v3.456h21.888v10.56h5.504v-10.56h7.168v-5.312zm-20.224 0 14.72-20.672v20.672zm33.551-22.016h6.144v-6.72h-6.144zm.32 37.888h5.504v-31.552h-5.504zm49.722-32.128c-4.544 0-8.128 1.856-10.304 6.144-1.728-4.416-5.184-6.144-9.28-6.144-3.392 0-6.592 1.216-8.576 4.48v-3.904h-5.376l.064 31.552h5.504v-14.144c0-6.848 1.088-13.12 7.36-13.12 5.312 0 6.528 4.864 6.528 9.152v18.112h5.504v-14.144c0-6.848 1.024-13.12 7.488-13.12 6.272 0 6.4 6.4 6.4 9.024v18.24h5.504v-19.84c0-7.04-3.264-12.288-10.816-12.288zm36.266 0c-4.096 0-7.68 1.472-9.984 4.48v-3.904h-5.504v44.608h5.504v-17.024c2.112 2.816 5.76 4.544 9.984 4.544 8.768 0 13.824-6.656 13.824-16.384s-5.12-16.32-13.824-16.32zm-1.024 27.84c-6.272 0-9.408-4.928-9.408-11.52 0-6.848 3.328-11.52 9.408-11.52 5.952 0 9.344 4.48 9.344 11.52 0 6.848-3.2 11.52-9.344 11.52zm34.491-27.84c-5.504 0-9.792 2.112-13.312 6.592l3.968 3.328c2.496-3.328 5.504-5.056 9.216-5.056 4.8 0 7.488 2.688 7.488 7.552v1.28h-6.976c-5.312 0-8.448.512-10.816 1.792-2.56 1.408-3.968 3.968-3.968 7.296 0 6.08 4.288 9.92 11.072 9.92 4.736 0 8.512-1.92 10.752-5.312l.384 4.736h5.056v-19.712c0-7.808-4.8-12.416-12.864-12.416zm-2.048 28.096c-4.224 0-6.848-1.984-6.848-5.056 0-1.6.575-2.816 1.6-3.648 1.344-1.024 3.52-1.408 8.32-1.408h6.336v.32c0 5.824-3.84 9.792-9.408 9.792zm36.686 4.608c5.888 0 10.56-3.2 12.672-8.96l-5.056-1.92c-1.088 3.776-3.968 6.016-7.68 6.016-6.272 0-8.96-5.44-8.96-11.392s2.688-11.584 8.96-11.584c3.648 0 6.528 2.304 7.808 6.144l5.248-2.112c-2.496-6.016-7.232-8.896-13.056-8.896-9.792 0-14.592 8.128-14.592 16.448 0 8.64 5.12 16.256 14.656 16.256zm34.556-27.648v-4.48h-7.744v-11.584l-5.504 4.096v7.488h-5.184v4.48h5.184v19.2c0 5.952 3.584 8.448 8.128 8.448 1.664 0 3.392-.32 5.12-.896v-4.672c-1.408.448-2.688.704-3.776.704-2.496 0-3.968-1.28-3.968-4.16v-18.624zm41.369 27.84c10.688 0 16.384-5.888 16.384-17.216v-28.16h-5.696v27.776c0 8.32-3.264 12.032-10.688 12.032-7.36 0-10.624-3.648-10.624-11.904v-27.904h-5.696v28.48c0 11.072 5.696 16.896 16.32 16.896zm28.951-.768h5.696v-44.608h-5.696zm34.612.768c10.688 0 16.384-5.888 16.384-17.216v-28.16h-5.696v27.776c0 8.32-3.264 12.032-10.688 12.032-7.36 0-10.624-3.648-10.624-11.904v-27.904h-5.696v28.48c0 11.072 5.696 16.896 16.32 16.896zm46.743 0c9.088 0 15.872-4.416 19.136-12.736l-5.376-1.984c-2.304 6.144-7.104 9.28-13.76 9.28-9.536 0-15.04-6.464-15.04-17.728 0-11.2 5.504-17.536 15.232-17.536 6.72 0 11.328 2.944 13.568 9.088l5.248-2.048c-3.136-8.256-9.729-12.48-18.816-12.48-12.992 0-20.928 8.704-20.928 22.976 0 14.4 7.872 23.168 20.736 23.168z" fill="#657788"/></svg>