<svg xmlns="http://www.w3.org/2000/svg" xmlns:xlink="http://www.w3.org/1999/xlink" viewBox="0 0 3467 594"><defs/><defs><path id="a" d="M200 400a200 200 0 100-400 200 200 0 000 400z"/></defs><g fill="none" fill-rule="evenodd"><path stroke="#666B72" stroke-width="38" d="M19 269V19h250M575 325v250H325"/><path fill="#666B72" d="M2068 457.3v-255h46.9v255H2068zm-1-335.3h48.9v43.4H2067V122zM1765 328l106.3-218h52.4l-112.3 218.6h114.8v-99.3h48.9v99.3h43.4V373H1975v84.3h-49V373H1765v-45z"/><path fill="#155DA1" d="M297 497a200 200 0 100-400 200 200 0 000 400z"/><g transform="translate(97 97)"><mask id="b" fill="#fff"><use xlink:href="#a"/></mask><use xlink:href="#a"/><path fill="#64AB8A" d="M239.8 112.1c-6.8 2.3-6.3 2.7-14.4 1-8.1-1.5-5.9-18-20.2-18-14.4 0-27.6-9.2-42.5 2-15 11.3-28.7 12.2-34 29.5-5.4 17.3-11.7 24.8-11.7 48 0 23 6.8 25.3 13.6 30.4 6.9 5 40.7-.3 44.3-.3 3.5 0 23.7-7.5 30.7 8.7 7 16.3 11 25.5 8.8 36.2-2 10.6-6.7 29.9.9 37.4 7.5 7.6 9.8 23.8 12.4 33.7 2.7 9.8 2.2 19.6 10.3 19.6 8 0 17.3.4 24-5 6.7-5.5 19-25.8 19-25.8s7.2-11.5 7.2-18c0-6.7 19.6-17.8 19.6-24.6 0-6.9-5.6-29.8-2.8-35.4 2.8-5.6 34.4-28.5 34.4-38.9 0-10.3-13.1-12-13.1-12s-19.7-1.2-22.8-9.4c-3-8.3-25.7-45.4-21.4-50 4.2-4.6 6 1 10.6 7s14.2 23.3 23.9 30.8c9.7 7.6 25.2 25.4 35 7.6 9.8-17.9 35.5-22.8 28.7-35-6.8-12.3-19.2-15.8-20.9-13.5-1.7 2.4-14.9 9-17.4.4-2.6-8.6-4-18.6 6.7-18.6s24 9.5 26-3.5 35 10.8 35 10.8 15.4 20.6 23.5 20.6c8.2 0 28.6-13 28.6-13L457.5 34 326.3-13.3 195-26S171.8 21.3 175 34c3 12.6-3 21.7-12.2 21.7-9.1 0-20.8 17.9-15.1 24.5 5.7 6.6 39.5 7.3 52.2-6 12.8-13.1 9-22.8 38.2-9.6 29.2 13.2 25-15.6 37.6 0 12.6 15.6 27.6 21.2 10.7 39-16.8 17.9-39.6 6.2-46.5 8.5zM3 212.3s17.8 4 21.9 10c4 6-1.3 16.4 7 16.4s12.6 7.1 22.5 7.1c9.8 0 28.6 5 28.6 12s-7.6 16.2-10.6 22c-3 5.7-2.6 9.3-4.6 18.6-2 9.4-7 17.3-10.2 17.3-3.2 0-10.1 4.8-12.5 10-2.3 5.1-1.6 10.7-11 17.3-9.2 6.6-6.9 17.4-15.8 17.4-9 0-14.6 13.1-14.6 13.1l-33.4-120.7s-3.3-53.2 6.2-53.2 13.5 4.2 13.5 4.2l13 8.5z" mask="url(#b)"/></g><path fill="#666B72" d="M826.3 234c21-24.7 47.3-37 78.9-37 41.5 0 69.2 16.2 82.8 48.4 4.7 11.3 7 24.6 7 40V457h-47V293.8c0-21.6-5-36.9-14.9-45.9a56 56 0 00-39-13.5 65 65 0 00-47.3 20.5 68.5 68.5 0 00-20.5 50.4V457h-46.9V97.7h47V234zm371.5 106.2c-42.6 0-71 2.3-85.3 6.8-14.3 4.5-24.3 9.8-30 16-5.6 6-8.4 15.2-8.4 27.1 0 23 17.4 34.5 52.4 34.5 18.6 0 35-6.5 49.4-19.5 14.6-13.6 22-32 22-54.9v-10zm2 75.9c-20.3 30.6-50 45.9-89.3 45.9-38.6 0-64-12-76.4-36-4.6-9.6-7-22.9-7-39.9s4.2-31 12.5-42.1a78.8 78.8 0 0135-25.7c24-9.7 65-14.5 123.2-14.5v-23.4c0-13-2.3-22.3-7-28-10.3-12-27.4-18-51.4-18-23.3 0-39.6 5.7-48.9 17-5.3 6.7-8 14.3-8 23v6h-45.9c-.6-3.4-1-8.9-1-16.5a49 49 0 018-24.5 72 72 0 0122-23c20-12.9 44.9-19.4 74.8-19.4h4.5c34 0 59 6.8 75.4 20.2 16.3 13.5 24.4 32.7 24.4 57.7V407c0 6.3 1.4 10.8 4.3 13.5 2.8 2.6 6 4 9.7 4 8 0 15.6-2.4 23-7V452c-11 6.7-23.8 10-38.5 10-15 0-25.8-4.3-32.4-13a57.3 57.3 0 01-11-33zm311.6-58.9c0 33-10 58.9-30 77.8-19.2 18-44.3 27-75.3 27h-4c-33.6 0-60.3-11-80.3-33-21.3-22.9-32-54-32-93.3v-12c0-39.2 10.7-70.3 32-93.2 20.3-22.3 47-33.5 79.8-33.5h4c31 0 56.3 9.6 76.1 28.7 19.8 19.1 29.7 44.7 29.7 76.6H1465c0-31.3-11.6-52.2-35-62.9-7.6-3.3-16.2-5-25.9-5-10 0-19 1.7-27.2 5a57.4 57.4 0 00-21.2 15c-12.6 13.6-19 32.8-19 57.4v27c0 29.5 6.2 51.3 18.5 65a64 64 0 0050.4 20.8c21 0 36.4-6.4 46.2-19a76.6 76.6 0 0014.7-48.4h45zm196.9 99.8l-76.4-94.8-38.4 40V457h-46.9V97.7h46.9v246.5L1707.3 202h51.4l-98.3 123.8L1765.2 457h-57zM2332.1 293.8c0-39.6-15.3-59.4-45.9-59.4A54 54 0 002244 255a74.3 74.3 0 00-17.7 50.4V457h-46.9V202h34l6.4 37.4a92.8 92.8 0 0180.4-42.4c33.6 0 56.9 14.2 69.8 42.4 12.3-17.3 25.2-28.7 38.7-34.1a104.7 104.7 0 0173.6-3 68 68 0 0126 16.2c15.6 15 23.4 37.2 23.4 66.8V457h-46.9V293.8c0-39.6-15.3-59.4-45.9-59.4a54 54 0 00-42.2 20.5 74.3 74.3 0 00-17.7 50.4V457h-46.9V293.8zm295.6 130.8v122.7h-47V202h35c1.6 6.3 3.8 18 6.5 35 19-26.7 45.2-40 78.8-40a92 92 0 0172.9 31.5c20.3 23.6 30.4 57.3 30.4 101.3v5.4c0 40.3-9.6 71.9-29 94.9-17.9 21.2-42.7 31.9-74.3 31.9a84 84 0 01-73.3-37.4zm129.7-95.3c0-50-12.8-79.9-38.4-89.9-8-3.3-16.8-5-26.5-5-21 0-36.7 6.9-47.4 20.5-12 15.6-18 40.4-18 74.4 0 50.2 13 80.5 39 90.8 8 3 16.8 4.5 26.4 4.5 20.7 0 36.3-6.9 47-20.5 12-15.6 17.9-40.6 17.9-74.8zm244.2 11c-42.6 0-71 2.2-85.4 6.7-14.3 4.5-24.3 9.8-30 16-5.6 6-8.4 15.2-8.4 27.1 0 23 17.5 34.5 52.4 34.5 18.6 0 35.1-6.5 49.4-19.5 14.6-13.6 22-32 22-54.9v-10zm2 75.8c-20.3 30.6-50.1 45.9-89.4 45.9-38.6 0-64-12-76.3-36-4.7-9.6-7-22.9-7-39.9s4.2-31 12.5-42.1a78.8 78.8 0 0135-25.7c23.9-9.7 65-14.5 123.2-14.5v-23.4c0-13-2.4-22.3-7-28-10.3-12-27.5-18-51.4-18-23.3 0-39.6 5.7-49 17-5.2 6.7-8 14.3-8 23v6h-45.8c-.7-3.4-1-8.9-1-16.5a49 49 0 018-24.5 72 72 0 0122-23c19.9-12.9 44.8-19.4 74.8-19.4h4.5c33.9 0 59 6.8 75.3 20.2 16.3 13.5 24.5 32.7 24.5 57.7V407c0 6.3 1.4 10.8 4.2 13.5 2.8 2.6 6 4 9.7 4 8 0 15.7-2.4 23-7V452c-11 6.7-23.8 10-38.4 10-15 0-25.8-4.3-32.5-13a57.3 57.3 0 01-11-33zm312.3-58.9c0 33-10 58.9-30 77.8-19.3 18-44.4 27-75.3 27h-4c-33.6 0-60.4-11-80.3-33-21.3-22.9-32-54-32-93.3v-12c0-39.2 10.7-70.3 32-93.2 20.2-22.3 46.9-33.5 79.8-33.5h4c31 0 56.3 9.6 76 28.7 19.9 19.1 29.8 44.7 29.8 76.6h-46.4c0-31.3-11.7-52.2-35-62.9-7.6-3.3-16.3-5-26-5-9.9 0-19 1.7-27.1 5a57.4 57.4 0 00-21.2 15c-12.7 13.6-19 32.8-19 57.4v27c0 29.5 6.2 51.3 18.5 65a64 64 0 0050.4 20.8c21 0 36.3-6.4 46.1-19a76.6 76.6 0 0014.8-48.4h44.9zm119.2 68.4a83 83 0 0031-7.5v35c-12 5.9-27.5 8.9-46.5 8.9-19.3 0-34.1-5.7-44.4-17-10.3-11.3-15.5-30-15.5-55.9V239.4h-28V202h29.5l16-81.3h29.4V202h59.4v37.4h-59.4v152.2c0 19 6 29.8 18 32.5 3.3 1 6.8 1.5 10.5 1.5z"/></g></svg>