<svg id="_x31__x2C_5" enable-background="new 0 0 24 24" height="512" viewBox="0 0 24 24" width="512" xmlns="http://www.w3.org/2000/svg"><g><path style="fill:#B4D8FA;" d="m22.25 4.5h-20.5c-.965 0-1.75-.785-1.75-1.75v-1c0-.965.785-1.75 1.75-1.75h20.5c.965 0 1.75.785 1.75 1.75v1c0 .965-.785 1.75-1.75 1.75zm-20.5-3c-.138 0-.25.112-.25.25v1c0 .138.112.25.25.25h20.5c.138 0 .25-.112.25-.25v-1c0-.138-.112-.25-.25-.25z"/></g><g><path style="fill:#B4D8FA;"  d="m22.25 18h-20.5c-.414 0-.75-.336-.75-.75s.336-.75.75-.75h20.5c.414 0 .75.336.75.75s-.336.75-.75.75z"/></g><g><path style="fill:#B4D8FA;" d="m12 24c-.414 0-.75-.336-.75-.75v-5.75c0-.414.336-.75.75-.75s.75.336.75.75v5.75c0 .414-.336.75-.75.75z"/></g><g><path style="fill:#B4D8FA;" d="m16.25 24c-.229 0-.457-.105-.604-.304l-3.646-4.934-3.647 4.934c-.246.334-.715.403-1.049.157-.333-.246-.403-.716-.157-1.049l4.25-5.75c.282-.383.924-.383 1.206 0l4.25 5.75c.246.333.176.803-.157 1.049-.134.099-.291.147-.446.147z"/></g><g><path style="fill:#B4D8FA;" d="m21.25 18c-.414 0-.75-.336-.75-.75v-13.5c0-.414.336-.75.75-.75s.75.336.75.75v13.5c0 .414-.336.75-.75.75z"/></g><g><path style="fill:#B4D8FA;" d="m2.75 18c-.414 0-.75-.336-.75-.75v-13.5c0-.414.336-.75.75-.75s.75.336.75.75v13.5c0 .414-.336.75-.75.75z"/></g></svg>